G04 #@! TF.FileFunction,Legend,Top*
%FSLAX46Y46*%
G04 Gerber Fmt 4.6, Leading zero omitted, Abs format (unit mm)*
G04 Created by KiCad (PCBNEW 4.0.2+dfsg1-stable) date Qua 18 Mai 2016 07:52:08 BRT*
%MOMM*%
G01*
G04 APERTURE LIST*
%ADD10C,0.100000*%
%ADD11C,0.300000*%
%ADD12C,0.150000*%
%ADD13C,0.125000*%
G04 APERTURE END LIST*
D10*
D11*
X150089287Y-90198571D02*
X151017858Y-90198571D01*
X150517858Y-90770000D01*
X150732144Y-90770000D01*
X150875001Y-90841429D01*
X150946430Y-90912857D01*
X151017858Y-91055714D01*
X151017858Y-91412857D01*
X150946430Y-91555714D01*
X150875001Y-91627143D01*
X150732144Y-91698571D01*
X150303572Y-91698571D01*
X150160715Y-91627143D01*
X150089287Y-91555714D01*
X152446429Y-91698571D02*
X151589286Y-91698571D01*
X152017858Y-91698571D02*
X152017858Y-90198571D01*
X151875001Y-90412857D01*
X151732143Y-90555714D01*
X151589286Y-90627143D01*
X153160714Y-91627143D02*
X153160714Y-91698571D01*
X153089286Y-91841429D01*
X153017857Y-91912857D01*
X153732143Y-90341429D02*
X153803572Y-90270000D01*
X153946429Y-90198571D01*
X154303572Y-90198571D01*
X154446429Y-90270000D01*
X154517858Y-90341429D01*
X154589286Y-90484286D01*
X154589286Y-90627143D01*
X154517858Y-90841429D01*
X153660715Y-91698571D01*
X154589286Y-91698571D01*
X155946429Y-90198571D02*
X155232143Y-90198571D01*
X155160714Y-90912857D01*
X155232143Y-90841429D01*
X155375000Y-90770000D01*
X155732143Y-90770000D01*
X155875000Y-90841429D01*
X155946429Y-90912857D01*
X156017857Y-91055714D01*
X156017857Y-91412857D01*
X155946429Y-91555714D01*
X155875000Y-91627143D01*
X155732143Y-91698571D01*
X155375000Y-91698571D01*
X155232143Y-91627143D01*
X155160714Y-91555714D01*
X156946428Y-90198571D02*
X157089285Y-90198571D01*
X157232142Y-90270000D01*
X157303571Y-90341429D01*
X157375000Y-90484286D01*
X157446428Y-90770000D01*
X157446428Y-91127143D01*
X157375000Y-91412857D01*
X157303571Y-91555714D01*
X157232142Y-91627143D01*
X157089285Y-91698571D01*
X156946428Y-91698571D01*
X156803571Y-91627143D01*
X156732142Y-91555714D01*
X156660714Y-91412857D01*
X156589285Y-91127143D01*
X156589285Y-90770000D01*
X156660714Y-90484286D01*
X156732142Y-90341429D01*
X156803571Y-90270000D01*
X156946428Y-90198571D01*
X159232142Y-91698571D02*
X159232142Y-90698571D01*
X159232142Y-90841429D02*
X159303570Y-90770000D01*
X159446428Y-90698571D01*
X159660713Y-90698571D01*
X159803570Y-90770000D01*
X159874999Y-90912857D01*
X159874999Y-91698571D01*
X159874999Y-90912857D02*
X159946428Y-90770000D01*
X160089285Y-90698571D01*
X160303570Y-90698571D01*
X160446428Y-90770000D01*
X160517856Y-90912857D01*
X160517856Y-91698571D01*
X161232142Y-91698571D02*
X161232142Y-90698571D01*
X161232142Y-90841429D02*
X161303570Y-90770000D01*
X161446428Y-90698571D01*
X161660713Y-90698571D01*
X161803570Y-90770000D01*
X161874999Y-90912857D01*
X161874999Y-91698571D01*
X161874999Y-90912857D02*
X161946428Y-90770000D01*
X162089285Y-90698571D01*
X162303570Y-90698571D01*
X162446428Y-90770000D01*
X162517856Y-90912857D01*
X162517856Y-91698571D01*
X140750000Y-92370000D02*
X172000000Y-92370000D01*
X140750000Y-95000000D02*
X140750000Y-89670000D01*
X172000000Y-95000000D02*
X172000000Y-89670000D01*
X172000000Y-92370000D02*
X170873496Y-92956421D01*
X172000000Y-92370000D02*
X170873496Y-91783579D01*
X140750000Y-92370000D02*
X141876504Y-92956421D01*
X140750000Y-92370000D02*
X141876504Y-91783579D01*
X179928571Y-100160715D02*
X180000000Y-100232144D01*
X180071429Y-100375001D01*
X180071429Y-100732144D01*
X180000000Y-100875001D01*
X179928571Y-100946430D01*
X179785714Y-101017858D01*
X179642857Y-101017858D01*
X179428571Y-100946430D01*
X178571429Y-100089287D01*
X178571429Y-101017858D01*
X179928571Y-101589286D02*
X180000000Y-101660715D01*
X180071429Y-101803572D01*
X180071429Y-102160715D01*
X180000000Y-102303572D01*
X179928571Y-102375001D01*
X179785714Y-102446429D01*
X179642857Y-102446429D01*
X179428571Y-102375001D01*
X178571429Y-101517858D01*
X178571429Y-102446429D01*
X178642857Y-103160714D02*
X178571429Y-103160714D01*
X178428571Y-103089286D01*
X178357143Y-103017857D01*
X180071429Y-103660715D02*
X180071429Y-104660715D01*
X178571429Y-104017858D01*
X180071429Y-105946429D02*
X180071429Y-105232143D01*
X179357143Y-105160714D01*
X179428571Y-105232143D01*
X179500000Y-105375000D01*
X179500000Y-105732143D01*
X179428571Y-105875000D01*
X179357143Y-105946429D01*
X179214286Y-106017857D01*
X178857143Y-106017857D01*
X178714286Y-105946429D01*
X178642857Y-105875000D01*
X178571429Y-105732143D01*
X178571429Y-105375000D01*
X178642857Y-105232143D01*
X178714286Y-105160714D01*
X180071429Y-106946428D02*
X180071429Y-107089285D01*
X180000000Y-107232142D01*
X179928571Y-107303571D01*
X179785714Y-107375000D01*
X179500000Y-107446428D01*
X179142857Y-107446428D01*
X178857143Y-107375000D01*
X178714286Y-107303571D01*
X178642857Y-107232142D01*
X178571429Y-107089285D01*
X178571429Y-106946428D01*
X178642857Y-106803571D01*
X178714286Y-106732142D01*
X178857143Y-106660714D01*
X179142857Y-106589285D01*
X179500000Y-106589285D01*
X179785714Y-106660714D01*
X179928571Y-106732142D01*
X180000000Y-106803571D01*
X180071429Y-106946428D01*
X178571429Y-109232142D02*
X179571429Y-109232142D01*
X179428571Y-109232142D02*
X179500000Y-109303570D01*
X179571429Y-109446428D01*
X179571429Y-109660713D01*
X179500000Y-109803570D01*
X179357143Y-109874999D01*
X178571429Y-109874999D01*
X179357143Y-109874999D02*
X179500000Y-109946428D01*
X179571429Y-110089285D01*
X179571429Y-110303570D01*
X179500000Y-110446428D01*
X179357143Y-110517856D01*
X178571429Y-110517856D01*
X178571429Y-111232142D02*
X179571429Y-111232142D01*
X179428571Y-111232142D02*
X179500000Y-111303570D01*
X179571429Y-111446428D01*
X179571429Y-111660713D01*
X179500000Y-111803570D01*
X179357143Y-111874999D01*
X178571429Y-111874999D01*
X179357143Y-111874999D02*
X179500000Y-111946428D01*
X179571429Y-112089285D01*
X179571429Y-112303570D01*
X179500000Y-112446428D01*
X179357143Y-112517856D01*
X178571429Y-112517856D01*
X177900000Y-95000000D02*
X177900000Y-117750000D01*
X172000000Y-95000000D02*
X180600000Y-95000000D01*
X172000000Y-117750000D02*
X180600000Y-117750000D01*
X177900000Y-117750000D02*
X177313579Y-116623496D01*
X177900000Y-117750000D02*
X178486421Y-116623496D01*
X177900000Y-95000000D02*
X177313579Y-96126504D01*
X177900000Y-95000000D02*
X178486421Y-96126504D01*
D12*
X142480000Y-107079500D02*
X144480000Y-107079500D01*
X142480000Y-108560500D02*
X144480000Y-108560500D01*
X170484040Y-110991740D02*
X168484040Y-110991740D01*
X170484040Y-109510740D02*
X168484040Y-109510740D01*
X154319000Y-97945900D02*
X154319000Y-100545900D01*
X149719000Y-97945900D02*
X149719000Y-100545900D01*
X152917600Y-107289080D02*
X152917600Y-106589080D01*
X154117600Y-106589080D02*
X154117600Y-107289080D01*
X158970000Y-104660000D02*
X158970000Y-105360000D01*
X157770000Y-105360000D02*
X157770000Y-104660000D01*
X151110240Y-106614480D02*
X151110240Y-107314480D01*
X149910240Y-107314480D02*
X149910240Y-106614480D01*
X162180000Y-97410000D02*
X157100000Y-97410000D01*
X162180000Y-101855000D02*
X157100000Y-101855000D01*
X157100000Y-95505000D02*
X162180000Y-95505000D01*
X157100000Y-95505000D02*
X157100000Y-101855000D01*
X162180000Y-95505000D02*
X162180000Y-101855000D01*
X163190000Y-103430000D02*
X163890000Y-103430000D01*
X163890000Y-104630000D02*
X163190000Y-104630000D01*
X139932381Y-108558095D02*
X138932381Y-108558095D01*
X138932381Y-108177142D01*
X138980000Y-108081904D01*
X139027619Y-108034285D01*
X139122857Y-107986666D01*
X139265714Y-107986666D01*
X139360952Y-108034285D01*
X139408571Y-108081904D01*
X139456190Y-108177142D01*
X139456190Y-108558095D01*
X139932381Y-107034285D02*
X139932381Y-107605714D01*
X139932381Y-107320000D02*
X138932381Y-107320000D01*
X139075238Y-107415238D01*
X139170476Y-107510476D01*
X139218095Y-107605714D01*
X173936421Y-110989335D02*
X172936421Y-110989335D01*
X172936421Y-110608382D01*
X172984040Y-110513144D01*
X173031659Y-110465525D01*
X173126897Y-110417906D01*
X173269754Y-110417906D01*
X173364992Y-110465525D01*
X173412611Y-110513144D01*
X173460230Y-110608382D01*
X173460230Y-110989335D01*
X173031659Y-110036954D02*
X172984040Y-109989335D01*
X172936421Y-109894097D01*
X172936421Y-109656001D01*
X172984040Y-109560763D01*
X173031659Y-109513144D01*
X173126897Y-109465525D01*
X173222135Y-109465525D01*
X173364992Y-109513144D01*
X173936421Y-110084573D01*
X173936421Y-109465525D01*
X151257095Y-102898281D02*
X151257095Y-103707805D01*
X151304714Y-103803043D01*
X151352333Y-103850662D01*
X151447571Y-103898281D01*
X151638048Y-103898281D01*
X151733286Y-103850662D01*
X151780905Y-103803043D01*
X151828524Y-103707805D01*
X151828524Y-102898281D01*
X152828524Y-103898281D02*
X152257095Y-103898281D01*
X152542809Y-103898281D02*
X152542809Y-102898281D01*
X152447571Y-103041138D01*
X152352333Y-103136376D01*
X152257095Y-103183995D01*
D10*
X151796171Y-107022413D02*
X151819981Y-107046223D01*
X151843790Y-107117651D01*
X151843790Y-107165270D01*
X151819981Y-107236699D01*
X151772362Y-107284318D01*
X151724743Y-107308127D01*
X151629505Y-107331937D01*
X151558076Y-107331937D01*
X151462838Y-107308127D01*
X151415219Y-107284318D01*
X151367600Y-107236699D01*
X151343790Y-107165270D01*
X151343790Y-107117651D01*
X151367600Y-107046223D01*
X151391410Y-107022413D01*
X151391410Y-106831937D02*
X151367600Y-106808127D01*
X151343790Y-106760508D01*
X151343790Y-106641461D01*
X151367600Y-106593842D01*
X151391410Y-106570032D01*
X151439029Y-106546223D01*
X151486648Y-106546223D01*
X151558076Y-106570032D01*
X151843790Y-106855746D01*
X151843790Y-106546223D01*
D13*
X159926190Y-105073333D02*
X159926190Y-105311428D01*
X159426190Y-105311428D01*
X159926190Y-104644762D02*
X159926190Y-104930476D01*
X159926190Y-104787619D02*
X159426190Y-104787619D01*
X159497619Y-104835238D01*
X159545238Y-104882857D01*
X159569048Y-104930476D01*
D10*
X154848571Y-107053333D02*
X154872381Y-107077143D01*
X154896190Y-107148571D01*
X154896190Y-107196190D01*
X154872381Y-107267619D01*
X154824762Y-107315238D01*
X154777143Y-107339047D01*
X154681905Y-107362857D01*
X154610476Y-107362857D01*
X154515238Y-107339047D01*
X154467619Y-107315238D01*
X154420000Y-107267619D01*
X154396190Y-107196190D01*
X154396190Y-107148571D01*
X154420000Y-107077143D01*
X154443810Y-107053333D01*
X154896190Y-106577143D02*
X154896190Y-106862857D01*
X154896190Y-106720000D02*
X154396190Y-106720000D01*
X154467619Y-106767619D01*
X154515238Y-106815238D01*
X154539048Y-106862857D01*
D12*
X157830476Y-94232381D02*
X158163809Y-95232381D01*
X158497143Y-94232381D01*
X159401905Y-95137143D02*
X159354286Y-95184762D01*
X159211429Y-95232381D01*
X159116191Y-95232381D01*
X158973333Y-95184762D01*
X158878095Y-95089524D01*
X158830476Y-94994286D01*
X158782857Y-94803810D01*
X158782857Y-94660952D01*
X158830476Y-94470476D01*
X158878095Y-94375238D01*
X158973333Y-94280000D01*
X159116191Y-94232381D01*
X159211429Y-94232381D01*
X159354286Y-94280000D01*
X159401905Y-94327619D01*
X160401905Y-95137143D02*
X160354286Y-95184762D01*
X160211429Y-95232381D01*
X160116191Y-95232381D01*
X159973333Y-95184762D01*
X159878095Y-95089524D01*
X159830476Y-94994286D01*
X159782857Y-94803810D01*
X159782857Y-94660952D01*
X159830476Y-94470476D01*
X159878095Y-94375238D01*
X159973333Y-94280000D01*
X160116191Y-94232381D01*
X160211429Y-94232381D01*
X160354286Y-94280000D01*
X160401905Y-94327619D01*
X161354286Y-95232381D02*
X160782857Y-95232381D01*
X161068571Y-95232381D02*
X161068571Y-94232381D01*
X160973333Y-94375238D01*
X160878095Y-94470476D01*
X160782857Y-94518095D01*
D10*
X163446667Y-103088571D02*
X163422857Y-103112381D01*
X163351429Y-103136190D01*
X163303810Y-103136190D01*
X163232381Y-103112381D01*
X163184762Y-103064762D01*
X163160953Y-103017143D01*
X163137143Y-102921905D01*
X163137143Y-102850476D01*
X163160953Y-102755238D01*
X163184762Y-102707619D01*
X163232381Y-102660000D01*
X163303810Y-102636190D01*
X163351429Y-102636190D01*
X163422857Y-102660000D01*
X163446667Y-102683810D01*
X163613334Y-102636190D02*
X163922857Y-102636190D01*
X163756191Y-102826667D01*
X163827619Y-102826667D01*
X163875238Y-102850476D01*
X163899048Y-102874286D01*
X163922857Y-102921905D01*
X163922857Y-103040952D01*
X163899048Y-103088571D01*
X163875238Y-103112381D01*
X163827619Y-103136190D01*
X163684762Y-103136190D01*
X163637143Y-103112381D01*
X163613334Y-103088571D01*
M02*
