G04 #@! TF.FileFunction,Copper,L2,Bot,Signal*
%FSLAX46Y46*%
G04 Gerber Fmt 4.6, Leading zero omitted, Abs format (unit mm)*
G04 Created by KiCad (PCBNEW 4.0.2+dfsg1-stable) date Qua 18 Mai 2016 07:52:08 BRT*
%MOMM*%
G01*
G04 APERTURE LIST*
%ADD10C,0.100000*%
%ADD11C,1.500000*%
%ADD12R,4.000000X1.481000*%
%ADD13O,1.506220X3.014980*%
G04 APERTURE END LIST*
D10*
D11*
X147000000Y-105320000D03*
D12*
X143480000Y-105039500D03*
X143480000Y-110600500D03*
D11*
X155690000Y-108080000D03*
X150930000Y-110310000D03*
X153110000Y-111570000D03*
X162210000Y-108100000D03*
X155510000Y-112550000D03*
X164510000Y-112550000D03*
X164510000Y-108050000D03*
X166760000Y-108050000D03*
X166760000Y-112550000D03*
X157760000Y-108050000D03*
X160010000Y-108050000D03*
X157760000Y-112550000D03*
X160010000Y-112550000D03*
X162260000Y-112550000D03*
D12*
X169484040Y-113031740D03*
X169484040Y-107860740D03*
D13*
X158370000Y-98680000D03*
X160910000Y-98680000D03*
D11*
X147000000Y-110320000D03*
D10*
G36*
X171775000Y-117525000D02*
X140975000Y-117525000D01*
X140975000Y-97889230D01*
X157266890Y-97889230D01*
X157266890Y-99470770D01*
X157350859Y-99892912D01*
X157589983Y-100250787D01*
X157947858Y-100489911D01*
X158370000Y-100573880D01*
X158792142Y-100489911D01*
X159150017Y-100250787D01*
X159389141Y-99892912D01*
X159473110Y-99470770D01*
X159473110Y-97889230D01*
X159389141Y-97467088D01*
X159150017Y-97109213D01*
X158792142Y-96870089D01*
X158370000Y-96786120D01*
X157947858Y-96870089D01*
X157589983Y-97109213D01*
X157350859Y-97467088D01*
X157266890Y-97889230D01*
X140975000Y-97889230D01*
X140975000Y-95225000D01*
X171775000Y-95225000D01*
X171775000Y-117525000D01*
X171775000Y-117525000D01*
G37*
X171775000Y-117525000D02*
X140975000Y-117525000D01*
X140975000Y-97889230D01*
X157266890Y-97889230D01*
X157266890Y-99470770D01*
X157350859Y-99892912D01*
X157589983Y-100250787D01*
X157947858Y-100489911D01*
X158370000Y-100573880D01*
X158792142Y-100489911D01*
X159150017Y-100250787D01*
X159389141Y-99892912D01*
X159473110Y-99470770D01*
X159473110Y-97889230D01*
X159389141Y-97467088D01*
X159150017Y-97109213D01*
X158792142Y-96870089D01*
X158370000Y-96786120D01*
X157947858Y-96870089D01*
X157589983Y-97109213D01*
X157350859Y-97467088D01*
X157266890Y-97889230D01*
X140975000Y-97889230D01*
X140975000Y-95225000D01*
X171775000Y-95225000D01*
X171775000Y-117525000D01*
M02*
