G04 #@! TF.FileFunction,Legend,Top*
%FSLAX46Y46*%
G04 Gerber Fmt 4.6, Leading zero omitted, Abs format (unit mm)*
G04 Created by KiCad (PCBNEW 4.0.2+dfsg1-stable) date Qua 18 Mai 2016 07:41:20 BRT*
%MOMM*%
G01*
G04 APERTURE LIST*
%ADD10C,0.100000*%
%ADD11C,0.300000*%
%ADD12C,0.150000*%
%ADD13C,0.050000*%
%ADD14C,0.031750*%
G04 APERTURE END LIST*
D10*
D11*
X125308571Y-91785715D02*
X125380000Y-91857144D01*
X125451429Y-92000001D01*
X125451429Y-92357144D01*
X125380000Y-92500001D01*
X125308571Y-92571430D01*
X125165714Y-92642858D01*
X125022857Y-92642858D01*
X124808571Y-92571430D01*
X123951429Y-91714287D01*
X123951429Y-92642858D01*
X124951429Y-93928572D02*
X123951429Y-93928572D01*
X125522857Y-93571429D02*
X124451429Y-93214286D01*
X124451429Y-94142858D01*
X124022857Y-94785714D02*
X123951429Y-94785714D01*
X123808571Y-94714286D01*
X123737143Y-94642857D01*
X125451429Y-95714286D02*
X125451429Y-95857143D01*
X125380000Y-96000000D01*
X125308571Y-96071429D01*
X125165714Y-96142858D01*
X124880000Y-96214286D01*
X124522857Y-96214286D01*
X124237143Y-96142858D01*
X124094286Y-96071429D01*
X124022857Y-96000000D01*
X123951429Y-95857143D01*
X123951429Y-95714286D01*
X124022857Y-95571429D01*
X124094286Y-95500000D01*
X124237143Y-95428572D01*
X124522857Y-95357143D01*
X124880000Y-95357143D01*
X125165714Y-95428572D01*
X125308571Y-95500000D01*
X125380000Y-95571429D01*
X125451429Y-95714286D01*
X125451429Y-97142857D02*
X125451429Y-97285714D01*
X125380000Y-97428571D01*
X125308571Y-97500000D01*
X125165714Y-97571429D01*
X124880000Y-97642857D01*
X124522857Y-97642857D01*
X124237143Y-97571429D01*
X124094286Y-97500000D01*
X124022857Y-97428571D01*
X123951429Y-97285714D01*
X123951429Y-97142857D01*
X124022857Y-97000000D01*
X124094286Y-96928571D01*
X124237143Y-96857143D01*
X124522857Y-96785714D01*
X124880000Y-96785714D01*
X125165714Y-96857143D01*
X125308571Y-96928571D01*
X125380000Y-97000000D01*
X125451429Y-97142857D01*
X125451429Y-98571428D02*
X125451429Y-98714285D01*
X125380000Y-98857142D01*
X125308571Y-98928571D01*
X125165714Y-99000000D01*
X124880000Y-99071428D01*
X124522857Y-99071428D01*
X124237143Y-99000000D01*
X124094286Y-98928571D01*
X124022857Y-98857142D01*
X123951429Y-98714285D01*
X123951429Y-98571428D01*
X124022857Y-98428571D01*
X124094286Y-98357142D01*
X124237143Y-98285714D01*
X124522857Y-98214285D01*
X124880000Y-98214285D01*
X125165714Y-98285714D01*
X125308571Y-98357142D01*
X125380000Y-98428571D01*
X125451429Y-98571428D01*
X123951429Y-100857142D02*
X124951429Y-100857142D01*
X124808571Y-100857142D02*
X124880000Y-100928570D01*
X124951429Y-101071428D01*
X124951429Y-101285713D01*
X124880000Y-101428570D01*
X124737143Y-101499999D01*
X123951429Y-101499999D01*
X124737143Y-101499999D02*
X124880000Y-101571428D01*
X124951429Y-101714285D01*
X124951429Y-101928570D01*
X124880000Y-102071428D01*
X124737143Y-102142856D01*
X123951429Y-102142856D01*
X123951429Y-102857142D02*
X124951429Y-102857142D01*
X124808571Y-102857142D02*
X124880000Y-102928570D01*
X124951429Y-103071428D01*
X124951429Y-103285713D01*
X124880000Y-103428570D01*
X124737143Y-103499999D01*
X123951429Y-103499999D01*
X124737143Y-103499999D02*
X124880000Y-103571428D01*
X124951429Y-103714285D01*
X124951429Y-103928570D01*
X124880000Y-104071428D01*
X124737143Y-104142856D01*
X123951429Y-104142856D01*
X125980000Y-86000000D02*
X125980000Y-110000000D01*
X131500000Y-86000000D02*
X123280000Y-86000000D01*
X131500000Y-110000000D02*
X123280000Y-110000000D01*
X125980000Y-110000000D02*
X125393579Y-108873496D01*
X125980000Y-110000000D02*
X126566421Y-108873496D01*
X125980000Y-86000000D02*
X125393579Y-87126504D01*
X125980000Y-86000000D02*
X126566421Y-87126504D01*
X143968816Y-114652306D02*
X144897385Y-114650324D01*
X144398606Y-115222819D01*
X144612891Y-115222362D01*
X144755900Y-115293486D01*
X144827482Y-115364761D01*
X144899214Y-115507466D01*
X144899977Y-115864608D01*
X144828854Y-116007617D01*
X144757577Y-116079198D01*
X144614873Y-116150931D01*
X144186302Y-116151845D01*
X144043293Y-116080722D01*
X143971712Y-116009446D01*
X145397384Y-114649258D02*
X146397382Y-114647124D01*
X145757727Y-116148492D01*
X147043285Y-116074321D02*
X147043437Y-116145748D01*
X146972314Y-116288759D01*
X146901038Y-116360339D01*
X148327015Y-115143007D02*
X148329149Y-116143005D01*
X147968654Y-114572343D02*
X147613798Y-115644530D01*
X148542368Y-115642549D01*
X149186289Y-116141176D02*
X149472004Y-116140566D01*
X149614708Y-116068833D01*
X149685983Y-115997252D01*
X149828384Y-115782663D01*
X149899202Y-115496796D01*
X149897983Y-114925369D01*
X149826250Y-114782665D01*
X149754669Y-114711389D01*
X149611660Y-114640265D01*
X149325946Y-114640874D01*
X149183241Y-114712608D01*
X149111966Y-114784189D01*
X149040842Y-114927198D01*
X149041604Y-115284341D01*
X149113337Y-115427045D01*
X149184918Y-115498320D01*
X149327928Y-115569444D01*
X149613641Y-115568835D01*
X149756345Y-115497101D01*
X149827622Y-115425521D01*
X149898745Y-115282512D01*
X150825942Y-114637674D02*
X150968799Y-114637369D01*
X151111808Y-114708493D01*
X151183389Y-114779769D01*
X151255123Y-114922473D01*
X151327160Y-115208034D01*
X151327922Y-115565176D01*
X151257104Y-115851042D01*
X151185980Y-115994051D01*
X151114704Y-116065633D01*
X150971999Y-116137365D01*
X150829143Y-116137670D01*
X150686134Y-116066547D01*
X150614552Y-115995271D01*
X150542820Y-115852566D01*
X150470781Y-115567005D01*
X150470019Y-115209863D01*
X150540838Y-114923998D01*
X150611961Y-114780988D01*
X150683238Y-114709407D01*
X150825942Y-114637674D01*
X153114851Y-116132793D02*
X153112718Y-115132795D01*
X153113022Y-115275653D02*
X153184298Y-115204071D01*
X153327003Y-115132338D01*
X153541288Y-115131880D01*
X153684297Y-115203004D01*
X153756030Y-115345709D01*
X153757707Y-116131421D01*
X153756030Y-115345709D02*
X153827154Y-115202700D01*
X153969859Y-115130966D01*
X154184143Y-115130509D01*
X154327153Y-115201633D01*
X154398886Y-115344337D01*
X154400563Y-116130049D01*
X155114847Y-116128525D02*
X155112713Y-115128527D01*
X155113018Y-115271385D02*
X155184293Y-115199804D01*
X155326999Y-115128070D01*
X155541283Y-115127613D01*
X155684292Y-115198737D01*
X155756026Y-115341441D01*
X155757702Y-116127153D01*
X155756026Y-115341441D02*
X155827150Y-115198432D01*
X155969854Y-115126698D01*
X156184139Y-115126241D01*
X156327149Y-115197365D01*
X156398881Y-115340069D01*
X156400558Y-116125781D01*
X168998387Y-114070323D02*
X131508387Y-114150323D01*
X168990000Y-110140000D02*
X169004149Y-116770317D01*
X131500000Y-110220000D02*
X131514149Y-116850317D01*
X131508387Y-114150323D02*
X132633637Y-113561500D01*
X131508387Y-114150323D02*
X132636140Y-114734339D01*
X168998387Y-114070323D02*
X167870634Y-113486307D01*
X168998387Y-114070323D02*
X167873137Y-114659146D01*
D12*
X166210000Y-88190000D02*
X161130000Y-88190000D01*
X166210000Y-92635000D02*
X161130000Y-92635000D01*
X161130000Y-86285000D02*
X166210000Y-86285000D01*
X161130000Y-86285000D02*
X161130000Y-92635000D01*
X166210000Y-86285000D02*
X166210000Y-92635000D01*
X146430000Y-107990000D02*
X151510000Y-107990000D01*
X146430000Y-103545000D02*
X151510000Y-103545000D01*
X151510000Y-109895000D02*
X146430000Y-109895000D01*
X151510000Y-109895000D02*
X151510000Y-103545000D01*
X146430000Y-109895000D02*
X146430000Y-103545000D01*
X167420000Y-97930500D02*
X165420000Y-97930500D01*
X167420000Y-96449500D02*
X165420000Y-96449500D01*
X149350500Y-87610000D02*
X149350500Y-89610000D01*
X147869500Y-87610000D02*
X147869500Y-89610000D01*
X133070000Y-97389500D02*
X135070000Y-97389500D01*
X133070000Y-98870500D02*
X135070000Y-98870500D01*
X142100000Y-98730000D02*
X141400000Y-98730000D01*
X141400000Y-97530000D02*
X142100000Y-97530000D01*
X157150000Y-97770000D02*
X156450000Y-97770000D01*
X156450000Y-96570000D02*
X157150000Y-96570000D01*
X148010000Y-93410000D02*
X148010000Y-92710000D01*
X149210000Y-92710000D02*
X149210000Y-93410000D01*
D13*
X149326301Y-96210000D02*
G75*
G03X149326301Y-96210000I-106301J0D01*
G01*
X148440000Y-95670000D02*
X148440000Y-98670000D01*
X148440000Y-98670000D02*
X150440000Y-98670000D01*
X150440000Y-98670000D02*
X150440000Y-95670000D01*
X150440000Y-95670000D02*
X148440000Y-95670000D01*
D12*
X163122381Y-85917143D02*
X163074762Y-85964762D01*
X162931905Y-86012381D01*
X162836667Y-86012381D01*
X162693809Y-85964762D01*
X162598571Y-85869524D01*
X162550952Y-85774286D01*
X162503333Y-85583810D01*
X162503333Y-85440952D01*
X162550952Y-85250476D01*
X162598571Y-85155238D01*
X162693809Y-85060000D01*
X162836667Y-85012381D01*
X162931905Y-85012381D01*
X163074762Y-85060000D01*
X163122381Y-85107619D01*
X163312857Y-86107619D02*
X164074762Y-86107619D01*
X164836667Y-86012381D02*
X164265238Y-86012381D01*
X164550952Y-86012381D02*
X164550952Y-85012381D01*
X164455714Y-85155238D01*
X164360476Y-85250476D01*
X164265238Y-85298095D01*
X148422381Y-110977143D02*
X148374762Y-111024762D01*
X148231905Y-111072381D01*
X148136667Y-111072381D01*
X147993809Y-111024762D01*
X147898571Y-110929524D01*
X147850952Y-110834286D01*
X147803333Y-110643810D01*
X147803333Y-110500952D01*
X147850952Y-110310476D01*
X147898571Y-110215238D01*
X147993809Y-110120000D01*
X148136667Y-110072381D01*
X148231905Y-110072381D01*
X148374762Y-110120000D01*
X148422381Y-110167619D01*
X148612857Y-111167619D02*
X149374762Y-111167619D01*
X149565238Y-110167619D02*
X149612857Y-110120000D01*
X149708095Y-110072381D01*
X149946191Y-110072381D01*
X150041429Y-110120000D01*
X150089048Y-110167619D01*
X150136667Y-110262857D01*
X150136667Y-110358095D01*
X150089048Y-110500952D01*
X149517619Y-111072381D01*
X150136667Y-111072381D01*
X170872381Y-97928095D02*
X169872381Y-97928095D01*
X169872381Y-97547142D01*
X169920000Y-97451904D01*
X169967619Y-97404285D01*
X170062857Y-97356666D01*
X170205714Y-97356666D01*
X170300952Y-97404285D01*
X170348571Y-97451904D01*
X170396190Y-97547142D01*
X170396190Y-97928095D01*
X169872381Y-97023333D02*
X169872381Y-96404285D01*
X170253333Y-96737619D01*
X170253333Y-96594761D01*
X170300952Y-96499523D01*
X170348571Y-96451904D01*
X170443810Y-96404285D01*
X170681905Y-96404285D01*
X170777143Y-96451904D01*
X170824762Y-96499523D01*
X170872381Y-96594761D01*
X170872381Y-96880476D01*
X170824762Y-96975714D01*
X170777143Y-97023333D01*
X147871905Y-85062381D02*
X147871905Y-84062381D01*
X148252858Y-84062381D01*
X148348096Y-84110000D01*
X148395715Y-84157619D01*
X148443334Y-84252857D01*
X148443334Y-84395714D01*
X148395715Y-84490952D01*
X148348096Y-84538571D01*
X148252858Y-84586190D01*
X147871905Y-84586190D01*
X149395715Y-85062381D02*
X148824286Y-85062381D01*
X149110000Y-85062381D02*
X149110000Y-84062381D01*
X149014762Y-84205238D01*
X148919524Y-84300476D01*
X148824286Y-84348095D01*
X130522381Y-98868095D02*
X129522381Y-98868095D01*
X129522381Y-98487142D01*
X129570000Y-98391904D01*
X129617619Y-98344285D01*
X129712857Y-98296666D01*
X129855714Y-98296666D01*
X129950952Y-98344285D01*
X129998571Y-98391904D01*
X130046190Y-98487142D01*
X130046190Y-98868095D01*
X129617619Y-97915714D02*
X129570000Y-97868095D01*
X129522381Y-97772857D01*
X129522381Y-97534761D01*
X129570000Y-97439523D01*
X129617619Y-97391904D01*
X129712857Y-97344285D01*
X129808095Y-97344285D01*
X129950952Y-97391904D01*
X130522381Y-97963333D01*
X130522381Y-97344285D01*
X141583334Y-100387143D02*
X141535715Y-100434762D01*
X141392858Y-100482381D01*
X141297620Y-100482381D01*
X141154762Y-100434762D01*
X141059524Y-100339524D01*
X141011905Y-100244286D01*
X140964286Y-100053810D01*
X140964286Y-99910952D01*
X141011905Y-99720476D01*
X141059524Y-99625238D01*
X141154762Y-99530000D01*
X141297620Y-99482381D01*
X141392858Y-99482381D01*
X141535715Y-99530000D01*
X141583334Y-99577619D01*
X141964286Y-99577619D02*
X142011905Y-99530000D01*
X142107143Y-99482381D01*
X142345239Y-99482381D01*
X142440477Y-99530000D01*
X142488096Y-99577619D01*
X142535715Y-99672857D01*
X142535715Y-99768095D01*
X142488096Y-99910952D01*
X141916667Y-100482381D01*
X142535715Y-100482381D01*
X156633334Y-99427143D02*
X156585715Y-99474762D01*
X156442858Y-99522381D01*
X156347620Y-99522381D01*
X156204762Y-99474762D01*
X156109524Y-99379524D01*
X156061905Y-99284286D01*
X156014286Y-99093810D01*
X156014286Y-98950952D01*
X156061905Y-98760476D01*
X156109524Y-98665238D01*
X156204762Y-98570000D01*
X156347620Y-98522381D01*
X156442858Y-98522381D01*
X156585715Y-98570000D01*
X156633334Y-98617619D01*
X156966667Y-98522381D02*
X157585715Y-98522381D01*
X157252381Y-98903333D01*
X157395239Y-98903333D01*
X157490477Y-98950952D01*
X157538096Y-98998571D01*
X157585715Y-99093810D01*
X157585715Y-99331905D01*
X157538096Y-99427143D01*
X157490477Y-99474762D01*
X157395239Y-99522381D01*
X157109524Y-99522381D01*
X157014286Y-99474762D01*
X156966667Y-99427143D01*
X147067143Y-93226666D02*
X147114762Y-93274285D01*
X147162381Y-93417142D01*
X147162381Y-93512380D01*
X147114762Y-93655238D01*
X147019524Y-93750476D01*
X146924286Y-93798095D01*
X146733810Y-93845714D01*
X146590952Y-93845714D01*
X146400476Y-93798095D01*
X146305238Y-93750476D01*
X146210000Y-93655238D01*
X146162381Y-93512380D01*
X146162381Y-93417142D01*
X146210000Y-93274285D01*
X146257619Y-93226666D01*
X147162381Y-92274285D02*
X147162381Y-92845714D01*
X147162381Y-92560000D02*
X146162381Y-92560000D01*
X146305238Y-92655238D01*
X146400476Y-92750476D01*
X146448095Y-92845714D01*
D14*
X149343238Y-95380452D02*
X149343238Y-95483262D01*
X149349286Y-95495357D01*
X149355333Y-95501405D01*
X149367429Y-95507452D01*
X149391619Y-95507452D01*
X149403714Y-95501405D01*
X149409762Y-95495357D01*
X149415810Y-95483262D01*
X149415810Y-95380452D01*
X149542810Y-95507452D02*
X149470238Y-95507452D01*
X149506524Y-95507452D02*
X149506524Y-95380452D01*
X149494429Y-95398595D01*
X149482334Y-95410690D01*
X149470238Y-95416738D01*
M02*
