G04 #@! TF.FileFunction,Copper,L2,Bot,Signal*
%FSLAX46Y46*%
G04 Gerber Fmt 4.6, Leading zero omitted, Abs format (unit mm)*
G04 Created by KiCad (PCBNEW 4.0.2+dfsg1-stable) date Qua 18 Mai 2016 07:41:20 BRT*
%MOMM*%
G01*
G04 APERTURE LIST*
%ADD10C,0.100000*%
%ADD11C,1.500000*%
%ADD12O,1.506220X3.014980*%
%ADD13R,4.000000X1.481000*%
%ADD14R,1.481000X4.000000*%
G04 APERTURE END LIST*
D10*
D11*
X155000000Y-94670000D03*
X157500000Y-94670000D03*
X160000000Y-94670000D03*
X162500000Y-94670000D03*
X152500000Y-99670000D03*
X155000000Y-99670000D03*
X157500000Y-99670000D03*
X160000000Y-99670000D03*
X162500000Y-99670000D03*
X146110000Y-94000000D03*
X145040000Y-95600000D03*
X147540000Y-100600000D03*
X145040000Y-100600000D03*
X142540000Y-100600000D03*
X140040000Y-100600000D03*
X142540000Y-95600000D03*
X140040000Y-95600000D03*
X137540000Y-95600000D03*
X137540000Y-100600000D03*
X151110000Y-91500000D03*
D12*
X162400000Y-89460000D03*
X164940000Y-89460000D03*
X150240000Y-106720000D03*
X147700000Y-106720000D03*
D13*
X166420000Y-99970500D03*
X166420000Y-94409500D03*
D14*
X151390500Y-88610000D03*
X145829500Y-88610000D03*
D13*
X134070000Y-95349500D03*
X134070000Y-100910500D03*
D11*
X146110000Y-91500000D03*
D10*
G36*
X168775000Y-109775000D02*
X131725000Y-109775000D01*
X131725000Y-105929230D01*
X149136890Y-105929230D01*
X149136890Y-107510770D01*
X149220859Y-107932912D01*
X149459983Y-108290787D01*
X149817858Y-108529911D01*
X150240000Y-108613880D01*
X150662142Y-108529911D01*
X151020017Y-108290787D01*
X151259141Y-107932912D01*
X151343110Y-107510770D01*
X151343110Y-105929230D01*
X151259141Y-105507088D01*
X151020017Y-105149213D01*
X150662142Y-104910089D01*
X150240000Y-104826120D01*
X149817858Y-104910089D01*
X149459983Y-105149213D01*
X149220859Y-105507088D01*
X149136890Y-105929230D01*
X131725000Y-105929230D01*
X131725000Y-88669230D01*
X161296890Y-88669230D01*
X161296890Y-90250770D01*
X161380859Y-90672912D01*
X161619983Y-91030787D01*
X161977858Y-91269911D01*
X162400000Y-91353880D01*
X162822142Y-91269911D01*
X163180017Y-91030787D01*
X163419141Y-90672912D01*
X163503110Y-90250770D01*
X163503110Y-88669230D01*
X163419141Y-88247088D01*
X163180017Y-87889213D01*
X162822142Y-87650089D01*
X162400000Y-87566120D01*
X161977858Y-87650089D01*
X161619983Y-87889213D01*
X161380859Y-88247088D01*
X161296890Y-88669230D01*
X131725000Y-88669230D01*
X131725000Y-86225000D01*
X168775000Y-86225000D01*
X168775000Y-109775000D01*
X168775000Y-109775000D01*
G37*
X168775000Y-109775000D02*
X131725000Y-109775000D01*
X131725000Y-105929230D01*
X149136890Y-105929230D01*
X149136890Y-107510770D01*
X149220859Y-107932912D01*
X149459983Y-108290787D01*
X149817858Y-108529911D01*
X150240000Y-108613880D01*
X150662142Y-108529911D01*
X151020017Y-108290787D01*
X151259141Y-107932912D01*
X151343110Y-107510770D01*
X151343110Y-105929230D01*
X151259141Y-105507088D01*
X151020017Y-105149213D01*
X150662142Y-104910089D01*
X150240000Y-104826120D01*
X149817858Y-104910089D01*
X149459983Y-105149213D01*
X149220859Y-105507088D01*
X149136890Y-105929230D01*
X131725000Y-105929230D01*
X131725000Y-88669230D01*
X161296890Y-88669230D01*
X161296890Y-90250770D01*
X161380859Y-90672912D01*
X161619983Y-91030787D01*
X161977858Y-91269911D01*
X162400000Y-91353880D01*
X162822142Y-91269911D01*
X163180017Y-91030787D01*
X163419141Y-90672912D01*
X163503110Y-90250770D01*
X163503110Y-88669230D01*
X163419141Y-88247088D01*
X163180017Y-87889213D01*
X162822142Y-87650089D01*
X162400000Y-87566120D01*
X161977858Y-87650089D01*
X161619983Y-87889213D01*
X161380859Y-88247088D01*
X161296890Y-88669230D01*
X131725000Y-88669230D01*
X131725000Y-86225000D01*
X168775000Y-86225000D01*
X168775000Y-109775000D01*
M02*
