M48
;DRILL file {KiCad 4.0.2+dfsg1-stable} date Qua 18 Mai 2016 07:41:07 BRT
;FORMAT={-:-/ absolute / metric / decimal}
FMAT,2
METRIC,TZ
T1C0.998
T2C1.000
%
G90
G05
M71
T1
X147.7Y-106.72
X150.24Y-106.72
X162.4Y-89.46
X164.94Y-89.46
T2
X137.54Y-95.6
X137.54Y-100.6
X140.04Y-95.6
X140.04Y-100.6
X142.54Y-95.6
X142.54Y-100.6
X145.04Y-95.6
X145.04Y-100.6
X146.11Y-91.5
X146.11Y-94.
X147.54Y-100.6
X151.11Y-91.5
X152.5Y-99.67
X155.Y-94.67
X155.Y-99.67
X157.5Y-94.67
X157.5Y-99.67
X160.Y-94.67
X160.Y-99.67
X162.5Y-94.67
X162.5Y-99.67
T0
M30
