G04 #@! TF.FileFunction,Legend,Top*
%FSLAX46Y46*%
G04 Gerber Fmt 4.6, Leading zero omitted, Abs format (unit mm)*
G04 Created by KiCad (PCBNEW 4.0.2+dfsg1-stable) date Qua 18 Mai 2016 07:39:49 BRT*
%MOMM*%
G01*
G04 APERTURE LIST*
%ADD10C,0.100000*%
%ADD11C,0.300000*%
%ADD12C,0.250000*%
%ADD13C,0.200000*%
%ADD14C,0.150000*%
%ADD15C,0.050000*%
G04 APERTURE END LIST*
D10*
D11*
X107304287Y-68438571D02*
X108232858Y-68438571D01*
X107732858Y-69010000D01*
X107947144Y-69010000D01*
X108090001Y-69081429D01*
X108161430Y-69152857D01*
X108232858Y-69295714D01*
X108232858Y-69652857D01*
X108161430Y-69795714D01*
X108090001Y-69867143D01*
X107947144Y-69938571D01*
X107518572Y-69938571D01*
X107375715Y-69867143D01*
X107304287Y-69795714D01*
X108804286Y-68581429D02*
X108875715Y-68510000D01*
X109018572Y-68438571D01*
X109375715Y-68438571D01*
X109518572Y-68510000D01*
X109590001Y-68581429D01*
X109661429Y-68724286D01*
X109661429Y-68867143D01*
X109590001Y-69081429D01*
X108732858Y-69938571D01*
X109661429Y-69938571D01*
X110375714Y-69867143D02*
X110375714Y-69938571D01*
X110304286Y-70081429D01*
X110232857Y-70152857D01*
X111232858Y-69081429D02*
X111090000Y-69010000D01*
X111018572Y-68938571D01*
X110947143Y-68795714D01*
X110947143Y-68724286D01*
X111018572Y-68581429D01*
X111090000Y-68510000D01*
X111232858Y-68438571D01*
X111518572Y-68438571D01*
X111661429Y-68510000D01*
X111732858Y-68581429D01*
X111804286Y-68724286D01*
X111804286Y-68795714D01*
X111732858Y-68938571D01*
X111661429Y-69010000D01*
X111518572Y-69081429D01*
X111232858Y-69081429D01*
X111090000Y-69152857D01*
X111018572Y-69224286D01*
X110947143Y-69367143D01*
X110947143Y-69652857D01*
X111018572Y-69795714D01*
X111090000Y-69867143D01*
X111232858Y-69938571D01*
X111518572Y-69938571D01*
X111661429Y-69867143D01*
X111732858Y-69795714D01*
X111804286Y-69652857D01*
X111804286Y-69367143D01*
X111732858Y-69224286D01*
X111661429Y-69152857D01*
X111518572Y-69081429D01*
X112375714Y-68581429D02*
X112447143Y-68510000D01*
X112590000Y-68438571D01*
X112947143Y-68438571D01*
X113090000Y-68510000D01*
X113161429Y-68581429D01*
X113232857Y-68724286D01*
X113232857Y-68867143D01*
X113161429Y-69081429D01*
X112304286Y-69938571D01*
X113232857Y-69938571D01*
X114161428Y-68438571D02*
X114304285Y-68438571D01*
X114447142Y-68510000D01*
X114518571Y-68581429D01*
X114590000Y-68724286D01*
X114661428Y-69010000D01*
X114661428Y-69367143D01*
X114590000Y-69652857D01*
X114518571Y-69795714D01*
X114447142Y-69867143D01*
X114304285Y-69938571D01*
X114161428Y-69938571D01*
X114018571Y-69867143D01*
X113947142Y-69795714D01*
X113875714Y-69652857D01*
X113804285Y-69367143D01*
X113804285Y-69010000D01*
X113875714Y-68724286D01*
X113947142Y-68581429D01*
X114018571Y-68510000D01*
X114161428Y-68438571D01*
X116447142Y-69938571D02*
X116447142Y-68938571D01*
X116447142Y-69081429D02*
X116518570Y-69010000D01*
X116661428Y-68938571D01*
X116875713Y-68938571D01*
X117018570Y-69010000D01*
X117089999Y-69152857D01*
X117089999Y-69938571D01*
X117089999Y-69152857D02*
X117161428Y-69010000D01*
X117304285Y-68938571D01*
X117518570Y-68938571D01*
X117661428Y-69010000D01*
X117732856Y-69152857D01*
X117732856Y-69938571D01*
X118447142Y-69938571D02*
X118447142Y-68938571D01*
X118447142Y-69081429D02*
X118518570Y-69010000D01*
X118661428Y-68938571D01*
X118875713Y-68938571D01*
X119018570Y-69010000D01*
X119089999Y-69152857D01*
X119089999Y-69938571D01*
X119089999Y-69152857D02*
X119161428Y-69010000D01*
X119304285Y-68938571D01*
X119518570Y-68938571D01*
X119661428Y-69010000D01*
X119732856Y-69152857D01*
X119732856Y-69938571D01*
X97180000Y-70610000D02*
X130000000Y-70610000D01*
X97180000Y-72000000D02*
X97180000Y-67910000D01*
X130000000Y-72000000D02*
X130000000Y-67910000D01*
X130000000Y-70610000D02*
X128873496Y-71196421D01*
X130000000Y-70610000D02*
X128873496Y-70023579D01*
X97180000Y-70610000D02*
X98306504Y-71196421D01*
X97180000Y-70610000D02*
X98306504Y-70023579D01*
X135414423Y-92116235D02*
X135343019Y-92044780D01*
X135271642Y-91901897D01*
X135271770Y-91544754D01*
X135343251Y-91401923D01*
X135414705Y-91330520D01*
X135557588Y-91259143D01*
X135700445Y-91259194D01*
X135914705Y-91330699D01*
X136771539Y-92188151D01*
X136771873Y-91259580D01*
X135272053Y-90759040D02*
X135272413Y-89759040D01*
X136772181Y-90402437D01*
X136701216Y-89116698D02*
X136772644Y-89116724D01*
X136915476Y-89188203D01*
X136986878Y-89259658D01*
X135915810Y-88259272D02*
X135844330Y-88402104D01*
X135772875Y-88473506D01*
X135629992Y-88544884D01*
X135558564Y-88544858D01*
X135415733Y-88473378D01*
X135344330Y-88401924D01*
X135272952Y-88259040D01*
X135273055Y-87973326D01*
X135344535Y-87830495D01*
X135415990Y-87759092D01*
X135558873Y-87687715D01*
X135630301Y-87687741D01*
X135773132Y-87759220D01*
X135844535Y-87830675D01*
X135915913Y-87973558D01*
X135915810Y-88259272D01*
X135987187Y-88402155D01*
X136058590Y-88473609D01*
X136201421Y-88545089D01*
X136487135Y-88545192D01*
X136630018Y-88473815D01*
X136701473Y-88402412D01*
X136772952Y-88259580D01*
X136773055Y-87973866D01*
X136701678Y-87830983D01*
X136630275Y-87759529D01*
X136487444Y-87688049D01*
X136201730Y-87687946D01*
X136058847Y-87759323D01*
X135987392Y-87830726D01*
X135915913Y-87973558D01*
X135273492Y-86759041D02*
X135273543Y-86616184D01*
X135345023Y-86473353D01*
X135416478Y-86401950D01*
X135559361Y-86330572D01*
X135845101Y-86259247D01*
X136202244Y-86259376D01*
X136487932Y-86330906D01*
X136630763Y-86402387D01*
X136702166Y-86473841D01*
X136773543Y-86616724D01*
X136773492Y-86759581D01*
X136702012Y-86902412D01*
X136630558Y-86973816D01*
X136487675Y-87045192D01*
X136201935Y-87116518D01*
X135844792Y-87116390D01*
X135559104Y-87044858D01*
X135416273Y-86973379D01*
X135344869Y-86901924D01*
X135273492Y-86759041D01*
X135274006Y-85330471D02*
X135274057Y-85187614D01*
X135345537Y-85044782D01*
X135416992Y-84973379D01*
X135559875Y-84902001D01*
X135845614Y-84830676D01*
X136202757Y-84830805D01*
X136488446Y-84902335D01*
X136631277Y-84973816D01*
X136702680Y-85045270D01*
X136774057Y-85188153D01*
X136774006Y-85331010D01*
X136702526Y-85473841D01*
X136631071Y-85545245D01*
X136488189Y-85616621D01*
X136202449Y-85687948D01*
X135845306Y-85687819D01*
X135559618Y-85616287D01*
X135416787Y-85544808D01*
X135345383Y-85473353D01*
X135274006Y-85330471D01*
X136774828Y-83045296D02*
X135774828Y-83044937D01*
X135917686Y-83044988D02*
X135846282Y-82973534D01*
X135774905Y-82830651D01*
X135774982Y-82616366D01*
X135846462Y-82473534D01*
X135989345Y-82402157D01*
X136775059Y-82402439D01*
X135989345Y-82402157D02*
X135846514Y-82330676D01*
X135775136Y-82187794D01*
X135775213Y-81973509D01*
X135846694Y-81830676D01*
X135989576Y-81759300D01*
X136775290Y-81759582D01*
X136775547Y-81045296D02*
X135775547Y-81044937D01*
X135918405Y-81044988D02*
X135847002Y-80973534D01*
X135775624Y-80830651D01*
X135775701Y-80616366D01*
X135847182Y-80473534D01*
X135990064Y-80402157D01*
X136775778Y-80402439D01*
X135990064Y-80402157D02*
X135847233Y-80330676D01*
X135775856Y-80187794D01*
X135775933Y-79973509D01*
X135847413Y-79830676D01*
X135990296Y-79759300D01*
X136776010Y-79759582D01*
X134740229Y-99801709D02*
X134750229Y-72001709D01*
X129990000Y-99800000D02*
X137440229Y-99802680D01*
X130000000Y-72000000D02*
X137450229Y-72002680D01*
X134750229Y-72001709D02*
X135336244Y-73128424D01*
X134750229Y-72001709D02*
X134163403Y-73128002D01*
X134740229Y-99801709D02*
X135327055Y-98675416D01*
X134740229Y-99801709D02*
X134154214Y-98674994D01*
D12*
X92031429Y-80732381D02*
X92031429Y-79732381D01*
X92840953Y-80208571D02*
X92507619Y-80208571D01*
X92507619Y-80732381D02*
X92507619Y-79732381D01*
X92983810Y-79732381D01*
X111835715Y-104352381D02*
X111359524Y-104352381D01*
X111359524Y-103352381D01*
X112359524Y-103352381D02*
X112550001Y-103352381D01*
X112645239Y-103400000D01*
X112740477Y-103495238D01*
X112788096Y-103685714D01*
X112788096Y-104019048D01*
X112740477Y-104209524D01*
X112645239Y-104304762D01*
X112550001Y-104352381D01*
X112359524Y-104352381D01*
X112264286Y-104304762D01*
X112169048Y-104209524D01*
X112121429Y-104019048D01*
X112121429Y-103685714D01*
X112169048Y-103495238D01*
X112264286Y-103400000D01*
X112359524Y-103352381D01*
D13*
X131150476Y-76522381D02*
X130817142Y-76046190D01*
X130579047Y-76522381D02*
X130579047Y-75522381D01*
X130960000Y-75522381D01*
X131055238Y-75570000D01*
X131102857Y-75617619D01*
X131150476Y-75712857D01*
X131150476Y-75855714D01*
X131102857Y-75950952D01*
X131055238Y-75998571D01*
X130960000Y-76046190D01*
X130579047Y-76046190D01*
X131912381Y-75998571D02*
X131579047Y-75998571D01*
X131579047Y-76522381D02*
X131579047Y-75522381D01*
X132055238Y-75522381D01*
X132579047Y-76522381D02*
X132483809Y-76474762D01*
X132436190Y-76427143D01*
X132388571Y-76331905D01*
X132388571Y-76046190D01*
X132436190Y-75950952D01*
X132483809Y-75903333D01*
X132579047Y-75855714D01*
X132721905Y-75855714D01*
X132817143Y-75903333D01*
X132864762Y-75950952D01*
X132912381Y-76046190D01*
X132912381Y-76331905D01*
X132864762Y-76427143D01*
X132817143Y-76474762D01*
X132721905Y-76522381D01*
X132579047Y-76522381D01*
X133769524Y-75855714D02*
X133769524Y-76522381D01*
X133340952Y-75855714D02*
X133340952Y-76379524D01*
X133388571Y-76474762D01*
X133483809Y-76522381D01*
X133626667Y-76522381D01*
X133721905Y-76474762D01*
X133769524Y-76427143D01*
X134102857Y-75855714D02*
X134483809Y-75855714D01*
X134245714Y-75522381D02*
X134245714Y-76379524D01*
X134293333Y-76474762D01*
X134388571Y-76522381D01*
X134483809Y-76522381D01*
D14*
X98630000Y-79299500D02*
X100630000Y-79299500D01*
X98630000Y-80780500D02*
X100630000Y-80780500D01*
X111299500Y-98450000D02*
X111299500Y-96450000D01*
X112780500Y-98450000D02*
X112780500Y-96450000D01*
X128460000Y-83330500D02*
X126460000Y-83330500D01*
X128460000Y-81849500D02*
X126460000Y-81849500D01*
D15*
X113240217Y-78750000D02*
G75*
G03X113240217Y-78750000I-230217J0D01*
G01*
X111503000Y-78130000D02*
X111503000Y-83210000D01*
X116077000Y-78130000D02*
X116077000Y-83210000D01*
X116077000Y-83210000D02*
X111503000Y-83210000D01*
X111503000Y-78130000D02*
X116077000Y-78130000D01*
D14*
X96852381Y-80778095D02*
X95852381Y-80778095D01*
X95852381Y-80397142D01*
X95900000Y-80301904D01*
X95947619Y-80254285D01*
X96042857Y-80206666D01*
X96185714Y-80206666D01*
X96280952Y-80254285D01*
X96328571Y-80301904D01*
X96376190Y-80397142D01*
X96376190Y-80778095D01*
X96852381Y-79254285D02*
X96852381Y-79825714D01*
X96852381Y-79540000D02*
X95852381Y-79540000D01*
X95995238Y-79635238D01*
X96090476Y-79730476D01*
X96138095Y-79825714D01*
X111271905Y-101202381D02*
X111271905Y-100202381D01*
X111652858Y-100202381D01*
X111748096Y-100250000D01*
X111795715Y-100297619D01*
X111843334Y-100392857D01*
X111843334Y-100535714D01*
X111795715Y-100630952D01*
X111748096Y-100678571D01*
X111652858Y-100726190D01*
X111271905Y-100726190D01*
X112224286Y-100297619D02*
X112271905Y-100250000D01*
X112367143Y-100202381D01*
X112605239Y-100202381D01*
X112700477Y-100250000D01*
X112748096Y-100297619D01*
X112795715Y-100392857D01*
X112795715Y-100488095D01*
X112748096Y-100630952D01*
X112176667Y-101202381D01*
X112795715Y-101202381D01*
X131232381Y-83318095D02*
X130232381Y-83318095D01*
X130232381Y-82937142D01*
X130280000Y-82841904D01*
X130327619Y-82794285D01*
X130422857Y-82746666D01*
X130565714Y-82746666D01*
X130660952Y-82794285D01*
X130708571Y-82841904D01*
X130756190Y-82937142D01*
X130756190Y-83318095D01*
X130232381Y-82413333D02*
X130232381Y-81794285D01*
X130613333Y-82127619D01*
X130613333Y-81984761D01*
X130660952Y-81889523D01*
X130708571Y-81841904D01*
X130803810Y-81794285D01*
X131041905Y-81794285D01*
X131137143Y-81841904D01*
X131184762Y-81889523D01*
X131232381Y-81984761D01*
X131232381Y-82270476D01*
X131184762Y-82365714D01*
X131137143Y-82413333D01*
D10*
X112926190Y-81120952D02*
X113330952Y-81120952D01*
X113378571Y-81097143D01*
X113402381Y-81073333D01*
X113426190Y-81025714D01*
X113426190Y-80930476D01*
X113402381Y-80882857D01*
X113378571Y-80859048D01*
X113330952Y-80835238D01*
X112926190Y-80835238D01*
X113426190Y-80335238D02*
X113426190Y-80620952D01*
X113426190Y-80478095D02*
X112926190Y-80478095D01*
X112997619Y-80525714D01*
X113045238Y-80573333D01*
X113069048Y-80620952D01*
M02*
