G04 #@! TF.FileFunction,Copper,L2,Bot,Signal*
%FSLAX46Y46*%
G04 Gerber Fmt 4.6, Leading zero omitted, Abs format (unit mm)*
G04 Created by KiCad (PCBNEW 4.0.2+dfsg1-stable) date Qua 18 Mai 2016 07:39:49 BRT*
%MOMM*%
G01*
G04 APERTURE LIST*
%ADD10C,0.100000*%
%ADD11C,1.500000*%
%ADD12R,4.000000X1.481000*%
%ADD13R,1.481000X4.000000*%
G04 APERTURE END LIST*
D10*
D11*
X114540000Y-95000000D03*
X109540000Y-95000000D03*
X114540000Y-92500000D03*
X108980000Y-77040000D03*
X105980000Y-77040000D03*
X102980000Y-77040000D03*
X108980000Y-83040000D03*
X105980000Y-83040000D03*
X123000000Y-85090000D03*
X120500000Y-85090000D03*
X118000000Y-85090000D03*
X123000000Y-80090000D03*
X120500000Y-80090000D03*
X114540000Y-92500000D03*
X109540000Y-92500000D03*
X114540000Y-90000000D03*
X109540000Y-90000000D03*
X114540000Y-87500000D03*
X109540000Y-87500000D03*
X114540000Y-85000000D03*
D12*
X99630000Y-77259500D03*
X99630000Y-82820500D03*
D13*
X109259500Y-97450000D03*
X114820500Y-97450000D03*
D12*
X127460000Y-85370500D03*
X127460000Y-79809500D03*
D11*
X109540000Y-85000000D03*
X118000000Y-80090000D03*
X102980000Y-83040000D03*
D10*
G36*
X129575000Y-99375000D02*
X97605000Y-99375000D01*
X97605000Y-72425000D01*
X129575000Y-72425000D01*
X129575000Y-99375000D01*
X129575000Y-99375000D01*
G37*
X129575000Y-99375000D02*
X97605000Y-99375000D01*
X97605000Y-72425000D01*
X129575000Y-72425000D01*
X129575000Y-99375000D01*
M02*
