M48
;DRILL file {KiCad 4.0.2+dfsg1-stable} date Qua 18 Mai 2016 07:39:38 BRT
;FORMAT={-:-/ absolute / metric / decimal}
FMAT,2
METRIC,TZ
T1C1.000
%
G90
G05
M71
T1
X102.98Y-77.04
X102.98Y-83.04
X105.98Y-77.04
X105.98Y-83.04
X108.98Y-77.04
X108.98Y-83.04
X109.54Y-85.
X109.54Y-87.5
X109.54Y-90.
X109.54Y-92.5
X109.54Y-95.
X114.54Y-85.
X114.54Y-87.5
X114.54Y-90.
X114.54Y-92.5
X114.54Y-92.5
X114.54Y-95.
X118.Y-80.09
X118.Y-85.09
X120.5Y-80.09
X120.5Y-85.09
X123.Y-80.09
X123.Y-85.09
T0
M30
