G04 #@! TF.FileFunction,Legend,Top*
%FSLAX46Y46*%
G04 Gerber Fmt 4.6, Leading zero omitted, Abs format (unit mm)*
G04 Created by KiCad (PCBNEW 4.0.2+dfsg1-stable) date Qua 18 Mai 2016 08:00:36 BRT*
%MOMM*%
G01*
G04 APERTURE LIST*
%ADD10C,0.100000*%
%ADD11C,0.300000*%
%ADD12C,0.150000*%
%ADD13C,0.031750*%
G04 APERTURE END LIST*
D10*
X159923334Y-83227619D02*
X159970953Y-83180000D01*
X160066191Y-83132381D01*
X160304287Y-83132381D01*
X160399525Y-83180000D01*
X160447144Y-83227619D01*
X160494763Y-83322857D01*
X160494763Y-83418095D01*
X160447144Y-83560952D01*
X159875715Y-84132381D01*
X160494763Y-84132381D01*
X160970953Y-84084762D02*
X160970953Y-84132381D01*
X160923334Y-84227619D01*
X160875715Y-84275238D01*
X161447143Y-84132381D02*
X161637619Y-84132381D01*
X161732858Y-84084762D01*
X161780477Y-84037143D01*
X161875715Y-83894286D01*
X161923334Y-83703810D01*
X161923334Y-83322857D01*
X161875715Y-83227619D01*
X161828096Y-83180000D01*
X161732858Y-83132381D01*
X161542381Y-83132381D01*
X161447143Y-83180000D01*
X161399524Y-83227619D01*
X161351905Y-83322857D01*
X161351905Y-83560952D01*
X161399524Y-83656190D01*
X161447143Y-83703810D01*
X161542381Y-83751429D01*
X161732858Y-83751429D01*
X161828096Y-83703810D01*
X161875715Y-83656190D01*
X161923334Y-83560952D01*
X162399524Y-84132381D02*
X162590000Y-84132381D01*
X162685239Y-84084762D01*
X162732858Y-84037143D01*
X162828096Y-83894286D01*
X162875715Y-83703810D01*
X162875715Y-83322857D01*
X162828096Y-83227619D01*
X162780477Y-83180000D01*
X162685239Y-83132381D01*
X162494762Y-83132381D01*
X162399524Y-83180000D01*
X162351905Y-83227619D01*
X162304286Y-83322857D01*
X162304286Y-83560952D01*
X162351905Y-83656190D01*
X162399524Y-83703810D01*
X162494762Y-83751429D01*
X162685239Y-83751429D01*
X162780477Y-83703810D01*
X162828096Y-83656190D01*
X162875715Y-83560952D01*
X163494762Y-83132381D02*
X163590001Y-83132381D01*
X163685239Y-83180000D01*
X163732858Y-83227619D01*
X163780477Y-83322857D01*
X163828096Y-83513333D01*
X163828096Y-83751429D01*
X163780477Y-83941905D01*
X163732858Y-84037143D01*
X163685239Y-84084762D01*
X163590001Y-84132381D01*
X163494762Y-84132381D01*
X163399524Y-84084762D01*
X163351905Y-84037143D01*
X163304286Y-83941905D01*
X163256667Y-83751429D01*
X163256667Y-83513333D01*
X163304286Y-83322857D01*
X163351905Y-83227619D01*
X163399524Y-83180000D01*
X163494762Y-83132381D01*
X165018572Y-84132381D02*
X165018572Y-83465714D01*
X165018572Y-83560952D02*
X165066191Y-83513333D01*
X165161429Y-83465714D01*
X165304287Y-83465714D01*
X165399525Y-83513333D01*
X165447144Y-83608571D01*
X165447144Y-84132381D01*
X165447144Y-83608571D02*
X165494763Y-83513333D01*
X165590001Y-83465714D01*
X165732858Y-83465714D01*
X165828096Y-83513333D01*
X165875715Y-83608571D01*
X165875715Y-84132381D01*
X166351905Y-84132381D02*
X166351905Y-83465714D01*
X166351905Y-83560952D02*
X166399524Y-83513333D01*
X166494762Y-83465714D01*
X166637620Y-83465714D01*
X166732858Y-83513333D01*
X166780477Y-83608571D01*
X166780477Y-84132381D01*
X166780477Y-83608571D02*
X166828096Y-83513333D01*
X166923334Y-83465714D01*
X167066191Y-83465714D01*
X167161429Y-83513333D01*
X167209048Y-83608571D01*
X167209048Y-84132381D01*
X160000000Y-87140000D02*
X162990000Y-87140000D01*
X160000000Y-90980000D02*
X160000000Y-84440000D01*
X162990000Y-90980000D02*
X162990000Y-84440000D01*
X162990000Y-87140000D02*
X161863496Y-87726421D01*
X162990000Y-87140000D02*
X161863496Y-86553579D01*
X160000000Y-87140000D02*
X161126504Y-87726421D01*
X160000000Y-87140000D02*
X161126504Y-86553579D01*
D11*
X151411021Y-107810889D02*
X151339943Y-107739112D01*
X151269214Y-107595907D01*
X151270962Y-107238768D01*
X151343089Y-107096262D01*
X151414867Y-107025184D01*
X151558072Y-106954456D01*
X151700927Y-106955155D01*
X151914861Y-107027631D01*
X152767797Y-107888959D01*
X152772342Y-106960399D01*
X151278653Y-105667359D02*
X151277255Y-105953069D01*
X151347984Y-106096274D01*
X151419062Y-106168052D01*
X151632645Y-106311956D01*
X151918007Y-106384783D01*
X152489429Y-106387580D01*
X152632633Y-106316851D01*
X152704411Y-106245773D01*
X152776538Y-106103266D01*
X152777936Y-105817556D01*
X152707208Y-105674351D01*
X152636130Y-105602573D01*
X152493624Y-105530447D01*
X152136485Y-105528699D01*
X151993280Y-105599427D01*
X151921503Y-105670505D01*
X151849376Y-105813011D01*
X151847978Y-106098721D01*
X151918707Y-106241927D01*
X151989784Y-106313704D01*
X152132290Y-106385831D01*
X152711403Y-104817219D02*
X152782830Y-104817569D01*
X152925337Y-104889695D01*
X152996415Y-104961473D01*
X151289491Y-103453099D02*
X151285995Y-104167377D01*
X151999923Y-104242301D01*
X151928845Y-104170523D01*
X151858116Y-104027318D01*
X151859864Y-103670180D01*
X151931992Y-103527674D01*
X152003768Y-103456595D01*
X152146973Y-103385867D01*
X152504112Y-103387615D01*
X152646618Y-103459742D01*
X152717696Y-103531520D01*
X152788424Y-103674724D01*
X152786676Y-104031863D01*
X152714550Y-104174369D01*
X152642772Y-104245447D01*
X151296134Y-102095974D02*
X151294735Y-102381684D01*
X151365464Y-102524889D01*
X151436543Y-102596667D01*
X151650126Y-102740571D01*
X151935488Y-102813397D01*
X152506909Y-102816194D01*
X152650114Y-102745465D01*
X152721892Y-102674388D01*
X152794018Y-102531881D01*
X152795416Y-102246171D01*
X152724688Y-102102966D01*
X152653610Y-102031188D01*
X152511104Y-101959062D01*
X152153966Y-101957314D01*
X152010761Y-102028041D01*
X151938984Y-102099120D01*
X151866857Y-102241626D01*
X151865458Y-102527336D01*
X151936187Y-102670542D01*
X152007265Y-102742319D01*
X152149770Y-102814446D01*
X151301378Y-101024558D02*
X151302077Y-100881703D01*
X151374204Y-100739197D01*
X151445982Y-100668119D01*
X151589187Y-100597390D01*
X151875247Y-100527361D01*
X152232386Y-100529109D01*
X152517747Y-100601935D01*
X152660252Y-100674062D01*
X152731331Y-100745840D01*
X152802059Y-100889045D01*
X152801360Y-101031900D01*
X152729233Y-101174406D01*
X152657456Y-101245484D01*
X152514251Y-101316212D01*
X152228191Y-101386242D01*
X151871052Y-101384494D01*
X151585691Y-101311667D01*
X151443185Y-101239541D01*
X151372107Y-101167763D01*
X151301378Y-101024558D01*
X152812547Y-98746214D02*
X151812559Y-98741319D01*
X151955415Y-98742018D02*
X151884337Y-98670241D01*
X151813608Y-98527036D01*
X151814657Y-98312753D01*
X151886784Y-98170247D01*
X152029989Y-98099519D01*
X152815694Y-98103364D01*
X152029989Y-98099519D02*
X151887483Y-98027391D01*
X151816754Y-97884186D01*
X151817803Y-97669904D01*
X151889931Y-97527397D01*
X152033136Y-97456669D01*
X152818840Y-97460515D01*
X152822336Y-96746237D02*
X151822348Y-96741343D01*
X151965205Y-96742042D02*
X151894126Y-96670265D01*
X151823397Y-96527060D01*
X151824446Y-96312777D01*
X151896573Y-96170271D01*
X152039778Y-96099542D01*
X152825483Y-96103388D01*
X152039778Y-96099542D02*
X151897272Y-96027415D01*
X151826544Y-95884210D01*
X151827592Y-95669928D01*
X151899720Y-95527421D01*
X152042925Y-95456693D01*
X152828629Y-95460539D01*
X153430000Y-114880000D02*
X153560000Y-88320000D01*
X153430000Y-114880000D02*
X153430000Y-114880000D01*
X153560000Y-88320000D02*
X153560000Y-88320000D01*
X153560000Y-88320000D02*
X154140900Y-89449361D01*
X153560000Y-88320000D02*
X152968073Y-89443620D01*
X153430000Y-114880000D02*
X154021927Y-113756380D01*
X153430000Y-114880000D02*
X152849100Y-113750639D01*
X169819492Y-116117406D02*
X169821098Y-117117404D01*
X169461431Y-115546552D02*
X169106010Y-116618552D01*
X170034581Y-116617061D01*
X170461545Y-115616374D02*
X171390115Y-115614882D01*
X170891033Y-116187114D01*
X171105319Y-116186769D01*
X171248290Y-116257969D01*
X171319834Y-116329282D01*
X171391491Y-116472024D01*
X171392065Y-116829167D01*
X171320867Y-116972138D01*
X171249552Y-117043682D01*
X171106810Y-117115339D01*
X170678239Y-117116028D01*
X170535267Y-117044829D01*
X170463725Y-116973515D01*
X172106693Y-117042305D02*
X172106808Y-117113733D01*
X172035610Y-117256706D01*
X171964295Y-117328248D01*
X173461541Y-115611555D02*
X172747256Y-115612702D01*
X172676974Y-116327102D01*
X172748288Y-116255560D01*
X172891031Y-116183901D01*
X173248173Y-116183328D01*
X173391145Y-116254527D01*
X173462688Y-116325840D01*
X173534346Y-116468582D01*
X173534919Y-116825725D01*
X173463721Y-116968696D01*
X173392407Y-117040240D01*
X173249665Y-117111897D01*
X172892522Y-117112471D01*
X172749551Y-117041273D01*
X172678007Y-116969958D01*
X174391143Y-116252921D02*
X174248171Y-116181721D01*
X174176628Y-116110407D01*
X174104970Y-115967665D01*
X174104855Y-115896237D01*
X174176055Y-115753266D01*
X174247368Y-115681722D01*
X174390111Y-115610064D01*
X174675824Y-115609605D01*
X174818796Y-115680804D01*
X174890340Y-115752118D01*
X174961997Y-115894860D01*
X174962112Y-115966288D01*
X174890913Y-116109260D01*
X174819599Y-116180803D01*
X174676857Y-116252462D01*
X174391143Y-116252921D01*
X174248400Y-116324578D01*
X174177087Y-116396122D01*
X174105888Y-116539093D01*
X174106347Y-116824807D01*
X174178005Y-116967549D01*
X174249548Y-117038863D01*
X174392520Y-117110062D01*
X174678234Y-117109603D01*
X174820976Y-117037945D01*
X174892290Y-116966402D01*
X174963488Y-116823430D01*
X174963030Y-116537717D01*
X174891372Y-116394974D01*
X174819829Y-116323660D01*
X174676857Y-116252462D01*
X175890108Y-115607654D02*
X176032965Y-115607425D01*
X176175936Y-115678624D01*
X176247480Y-115749938D01*
X176319138Y-115892680D01*
X176391025Y-116178279D01*
X176391599Y-116535422D01*
X176320630Y-116821250D01*
X176249430Y-116964222D01*
X176178116Y-117035765D01*
X176035374Y-117107423D01*
X175892517Y-117107652D01*
X175749546Y-117036454D01*
X175678002Y-116965140D01*
X175606345Y-116822398D01*
X175534457Y-116536799D01*
X175533883Y-116179656D01*
X175604853Y-115893828D01*
X175676052Y-115750856D01*
X175747366Y-115679313D01*
X175890108Y-115607654D01*
X178178228Y-117103981D02*
X178176622Y-116103982D01*
X178176851Y-116246840D02*
X178248165Y-116175296D01*
X178390908Y-116103638D01*
X178605192Y-116103294D01*
X178748164Y-116174493D01*
X178819822Y-116317235D01*
X178821084Y-117102948D01*
X178819822Y-116317235D02*
X178891022Y-116174264D01*
X179033764Y-116102605D01*
X179248049Y-116102261D01*
X179391021Y-116173461D01*
X179462679Y-116316203D01*
X179463941Y-117101916D01*
X180178226Y-117100768D02*
X180176619Y-116100770D01*
X180176849Y-116243627D02*
X180248162Y-116172084D01*
X180390905Y-116100425D01*
X180605190Y-116100081D01*
X180748161Y-116171281D01*
X180819820Y-116314023D01*
X180821082Y-117099736D01*
X180819820Y-116314023D02*
X180891019Y-116171051D01*
X181033761Y-116099393D01*
X181248046Y-116099049D01*
X181391019Y-116170248D01*
X181462676Y-116312990D01*
X181463938Y-117098703D01*
X197180000Y-114920000D02*
X153600000Y-114990000D01*
X197180000Y-114920000D02*
X197180000Y-114920000D01*
X153600000Y-114990000D02*
X153600000Y-114990000D01*
X153600000Y-114990000D02*
X154725560Y-114401771D01*
X153600000Y-114990000D02*
X154727444Y-115574611D01*
X197180000Y-114920000D02*
X196052556Y-114335389D01*
X197180000Y-114920000D02*
X196054440Y-115508229D01*
D12*
X195740000Y-109990500D02*
X193740000Y-109990500D01*
X195740000Y-108509500D02*
X193740000Y-108509500D01*
X155210000Y-93239500D02*
X157210000Y-93239500D01*
X155210000Y-94720500D02*
X157210000Y-94720500D01*
D10*
X175932719Y-94020000D02*
G75*
G03X175932719Y-94020000I-442719J0D01*
G01*
D12*
X181325000Y-111125000D02*
X171675000Y-111125000D01*
X181325000Y-92075000D02*
X171675000Y-92075000D01*
X171675000Y-92075000D02*
X171675000Y-111125000D01*
X181325000Y-92075000D02*
X181325000Y-111125000D01*
X198632381Y-109978095D02*
X197632381Y-109978095D01*
X197632381Y-109597142D01*
X197680000Y-109501904D01*
X197727619Y-109454285D01*
X197822857Y-109406666D01*
X197965714Y-109406666D01*
X198060952Y-109454285D01*
X198108571Y-109501904D01*
X198156190Y-109597142D01*
X198156190Y-109978095D01*
X197727619Y-109025714D02*
X197680000Y-108978095D01*
X197632381Y-108882857D01*
X197632381Y-108644761D01*
X197680000Y-108549523D01*
X197727619Y-108501904D01*
X197822857Y-108454285D01*
X197918095Y-108454285D01*
X198060952Y-108501904D01*
X198632381Y-109073333D01*
X198632381Y-108454285D01*
X152922381Y-94728095D02*
X151922381Y-94728095D01*
X151922381Y-94347142D01*
X151970000Y-94251904D01*
X152017619Y-94204285D01*
X152112857Y-94156666D01*
X152255714Y-94156666D01*
X152350952Y-94204285D01*
X152398571Y-94251904D01*
X152446190Y-94347142D01*
X152446190Y-94728095D01*
X152922381Y-93204285D02*
X152922381Y-93775714D01*
X152922381Y-93490000D02*
X151922381Y-93490000D01*
X152065238Y-93585238D01*
X152160476Y-93680476D01*
X152208095Y-93775714D01*
D13*
X175930452Y-101696762D02*
X176033262Y-101696762D01*
X176045357Y-101690714D01*
X176051405Y-101684667D01*
X176057452Y-101672571D01*
X176057452Y-101648381D01*
X176051405Y-101636286D01*
X176045357Y-101630238D01*
X176033262Y-101624190D01*
X175930452Y-101624190D01*
X176057452Y-101497190D02*
X176057452Y-101569762D01*
X176057452Y-101533476D02*
X175930452Y-101533476D01*
X175948595Y-101545571D01*
X175960690Y-101557666D01*
X175966738Y-101569762D01*
M02*
