M48
;DRILL file {KiCad 4.0.2+dfsg1-stable} date Qua 18 Mai 2016 07:57:23 BRT
;FORMAT={-:-/ absolute / metric / decimal}
FMAT,2
METRIC,TZ
T1C0.998
T2C1.000
%
G90
G05
M71
T1
X190.08Y-99.925
X192.62Y-99.925
T2
X166.55Y-110.05
X166.55Y-115.05
X169.05Y-110.05
X169.05Y-115.05
X171.55Y-110.05
X171.55Y-115.05
X174.05Y-110.05
X174.05Y-115.05
X176.55Y-110.05
X176.55Y-115.05
X179.05Y-110.05
X179.9Y-116.025
X183.3Y-111.2
X183.3Y-116.2
X185.8Y-111.2
X185.8Y-116.2
X186.1Y-104.
X186.1Y-108.
X188.3Y-116.2
X190.8Y-116.2
X193.3Y-111.2
X193.3Y-116.2
X194.1Y-104.
X194.1Y-108.
X195.8Y-111.2
X195.8Y-116.2
X198.3Y-111.2
X198.3Y-116.2
T0
M30
