G04 #@! TF.FileFunction,Copper,L2,Bot,Signal*
%FSLAX46Y46*%
G04 Gerber Fmt 4.6, Leading zero omitted, Abs format (unit mm)*
G04 Created by KiCad (PCBNEW 4.0.2+dfsg1-stable) date Qua 18 Mai 2016 07:57:35 BRT*
%MOMM*%
G01*
G04 APERTURE LIST*
%ADD10C,0.100000*%
%ADD11C,1.500000*%
%ADD12R,4.000000X1.481000*%
%ADD13O,1.506220X3.014980*%
G04 APERTURE END LIST*
D10*
D11*
X195800000Y-111200000D03*
X195800000Y-116200000D03*
X194100000Y-108000000D03*
X186100000Y-108000000D03*
X194100000Y-104000000D03*
X186100000Y-104000000D03*
X183300000Y-116200000D03*
X185800000Y-116200000D03*
X188300000Y-116200000D03*
X190800000Y-116200000D03*
X193300000Y-116200000D03*
X198300000Y-116200000D03*
X183300000Y-111200000D03*
X185800000Y-111200000D03*
X193300000Y-111200000D03*
X179050000Y-110050000D03*
X176550000Y-110050000D03*
X174050000Y-110050000D03*
X171550000Y-110050000D03*
X169050000Y-110050000D03*
X166550000Y-110050000D03*
X176550000Y-115050000D03*
X174050000Y-115050000D03*
X171550000Y-115050000D03*
X169050000Y-115050000D03*
D12*
X163550000Y-109769500D03*
X163550000Y-115330500D03*
X201450000Y-116630500D03*
X201450000Y-111069500D03*
D11*
X166550000Y-115050000D03*
X198300000Y-111200000D03*
X179900000Y-116025000D03*
D13*
X190080000Y-99925000D03*
X192620000Y-99925000D03*
D10*
G36*
X203775000Y-119775000D02*
X161225000Y-119775000D01*
X161225000Y-99136189D01*
X189076890Y-99136189D01*
X189076890Y-100713811D01*
X189153247Y-101097685D01*
X189370694Y-101423117D01*
X189696126Y-101640564D01*
X190080000Y-101716921D01*
X190463874Y-101640564D01*
X190789306Y-101423117D01*
X191006753Y-101097685D01*
X191083110Y-100713811D01*
X191083110Y-99136189D01*
X191006753Y-98752315D01*
X190789306Y-98426883D01*
X190463874Y-98209436D01*
X190080000Y-98133079D01*
X189696126Y-98209436D01*
X189370694Y-98426883D01*
X189153247Y-98752315D01*
X189076890Y-99136189D01*
X161225000Y-99136189D01*
X161225000Y-96575000D01*
X203775000Y-96575000D01*
X203775000Y-119775000D01*
X203775000Y-119775000D01*
G37*
X203775000Y-119775000D02*
X161225000Y-119775000D01*
X161225000Y-99136189D01*
X189076890Y-99136189D01*
X189076890Y-100713811D01*
X189153247Y-101097685D01*
X189370694Y-101423117D01*
X189696126Y-101640564D01*
X190080000Y-101716921D01*
X190463874Y-101640564D01*
X190789306Y-101423117D01*
X191006753Y-101097685D01*
X191083110Y-100713811D01*
X191083110Y-99136189D01*
X191006753Y-98752315D01*
X190789306Y-98426883D01*
X190463874Y-98209436D01*
X190080000Y-98133079D01*
X189696126Y-98209436D01*
X189370694Y-98426883D01*
X189153247Y-98752315D01*
X189076890Y-99136189D01*
X161225000Y-99136189D01*
X161225000Y-96575000D01*
X203775000Y-96575000D01*
X203775000Y-119775000D01*
M02*
