G04 #@! TF.FileFunction,Copper,L1,Top,Signal*
%FSLAX46Y46*%
G04 Gerber Fmt 4.6, Leading zero omitted, Abs format (unit mm)*
G04 Created by KiCad (PCBNEW 4.0.2+dfsg1-stable) date Qua 18 Mai 2016 08:03:29 BRT*
%MOMM*%
G01*
G04 APERTURE LIST*
%ADD10C,0.100000*%
%ADD11C,0.200000*%
%ADD12R,0.610000X1.245000*%
%ADD13R,1.040000X1.800000*%
%ADD14R,4.000000X1.475000*%
%ADD15C,1.500000*%
%ADD16C,1.475000*%
G04 APERTURE END LIST*
D10*
D11*
X168210000Y-102628571D02*
X168495714Y-102628571D01*
X168638572Y-102700000D01*
X168781429Y-102842857D01*
X168852857Y-103128571D01*
X168852857Y-103628571D01*
X168781429Y-103914286D01*
X168638572Y-104057143D01*
X168495714Y-104128571D01*
X168210000Y-104128571D01*
X168067143Y-104057143D01*
X167924286Y-103914286D01*
X167852857Y-103628571D01*
X167852857Y-103128571D01*
X167924286Y-102842857D01*
X168067143Y-102700000D01*
X168210000Y-102628571D01*
X169495715Y-102628571D02*
X169495715Y-103842857D01*
X169567143Y-103985714D01*
X169638572Y-104057143D01*
X169781429Y-104128571D01*
X170067143Y-104128571D01*
X170210001Y-104057143D01*
X170281429Y-103985714D01*
X170352858Y-103842857D01*
X170352858Y-102628571D01*
X170852858Y-102628571D02*
X171710001Y-102628571D01*
X171281430Y-104128571D02*
X171281430Y-102628571D01*
X144834286Y-104228571D02*
X144834286Y-102728571D01*
X145548572Y-104228571D02*
X145548572Y-102728571D01*
X146405715Y-104228571D01*
X146405715Y-102728571D01*
D10*
X161036238Y-101941381D02*
X161369571Y-102941381D01*
X161702905Y-101941381D01*
X163321953Y-102941381D02*
X162750524Y-102941381D01*
X163036238Y-102941381D02*
X163036238Y-101941381D01*
X162941000Y-102084238D01*
X162845762Y-102179476D01*
X162750524Y-102227095D01*
X163750524Y-102846143D02*
X163798143Y-102893762D01*
X163750524Y-102941381D01*
X163702905Y-102893762D01*
X163750524Y-102846143D01*
X163750524Y-102941381D01*
X164750524Y-102941381D02*
X164179095Y-102941381D01*
X164464809Y-102941381D02*
X164464809Y-101941381D01*
X164369571Y-102084238D01*
X164274333Y-102179476D01*
X164179095Y-102227095D01*
D11*
X150172303Y-102341217D02*
X149672303Y-102341217D01*
X149672303Y-103126931D02*
X149672303Y-101626931D01*
X150386589Y-101626931D01*
X150958017Y-103126931D02*
X150958017Y-101626931D01*
X152386589Y-103126931D02*
X151672303Y-103126931D01*
X151672303Y-101626931D01*
X152672303Y-101626931D02*
X153529446Y-101626931D01*
X153100875Y-103126931D02*
X153100875Y-101626931D01*
X154886589Y-103126931D02*
X154386589Y-102412646D01*
X154029446Y-103126931D02*
X154029446Y-101626931D01*
X154600874Y-101626931D01*
X154743732Y-101698360D01*
X154815160Y-101769789D01*
X154886589Y-101912646D01*
X154886589Y-102126931D01*
X154815160Y-102269789D01*
X154743732Y-102341217D01*
X154600874Y-102412646D01*
X154029446Y-102412646D01*
X155815160Y-101626931D02*
X156100874Y-101626931D01*
X156243732Y-101698360D01*
X156386589Y-101841217D01*
X156458017Y-102126931D01*
X156458017Y-102626931D01*
X156386589Y-102912646D01*
X156243732Y-103055503D01*
X156100874Y-103126931D01*
X155815160Y-103126931D01*
X155672303Y-103055503D01*
X155529446Y-102912646D01*
X155458017Y-102626931D01*
X155458017Y-102126931D01*
X155529446Y-101841217D01*
X155672303Y-101698360D01*
X155815160Y-101626931D01*
X158172303Y-101769789D02*
X158243732Y-101698360D01*
X158386589Y-101626931D01*
X158743732Y-101626931D01*
X158886589Y-101698360D01*
X158958018Y-101769789D01*
X159029446Y-101912646D01*
X159029446Y-102055503D01*
X158958018Y-102269789D01*
X158100875Y-103126931D01*
X159029446Y-103126931D01*
D12*
X157490000Y-110367500D03*
D13*
X155865000Y-109440000D03*
X159115000Y-109440000D03*
D12*
X157490000Y-108512500D03*
D14*
X145770000Y-109430000D03*
D15*
X167300000Y-107430000D03*
X165300000Y-107430000D03*
X163300000Y-107430000D03*
X161300000Y-107430000D03*
X159300000Y-106430000D03*
X157300000Y-106430000D03*
X155300000Y-106430000D03*
X153300000Y-107430000D03*
X151300000Y-107430000D03*
X149300000Y-107430000D03*
X167300000Y-111430000D03*
X165300000Y-111430000D03*
X163300000Y-111430000D03*
X161300000Y-111430000D03*
X159300000Y-112430000D03*
X157300000Y-112430000D03*
X155300000Y-112430000D03*
X153300000Y-111430000D03*
X151300000Y-111430000D03*
X149300000Y-111430000D03*
D14*
X171100000Y-109440000D03*
D16*
X145770000Y-109430000D02*
X155100000Y-109430000D01*
X155100000Y-109430000D02*
X155110000Y-109440000D01*
X145780000Y-109440000D02*
X145770000Y-109430000D01*
X145780000Y-109440000D02*
X145770000Y-109430000D01*
X145780000Y-109420000D02*
X145770000Y-109430000D01*
X171100000Y-109440000D02*
X159750000Y-109440000D01*
D10*
G36*
X173075000Y-108345644D02*
X169100000Y-108345644D01*
X169063563Y-108352500D01*
X159930259Y-108352500D01*
X159890797Y-108291175D01*
X159773837Y-108211259D01*
X159635000Y-108183144D01*
X158595000Y-108183144D01*
X158465298Y-108207549D01*
X158346175Y-108284203D01*
X158266259Y-108401163D01*
X158238144Y-108540000D01*
X158238144Y-110340000D01*
X158262549Y-110469702D01*
X158339203Y-110588825D01*
X158456163Y-110668741D01*
X158595000Y-110696856D01*
X159635000Y-110696856D01*
X159764702Y-110672451D01*
X159883825Y-110595797D01*
X159930491Y-110527500D01*
X169066144Y-110527500D01*
X169100000Y-110534356D01*
X173075000Y-110534356D01*
X173075000Y-114705000D01*
X143715000Y-114705000D01*
X143715000Y-110513218D01*
X143770000Y-110524356D01*
X145764194Y-110524356D01*
X145780000Y-110527500D01*
X145795806Y-110524356D01*
X147770000Y-110524356D01*
X147806437Y-110517500D01*
X155043306Y-110517500D01*
X155089203Y-110588825D01*
X155206163Y-110668741D01*
X155345000Y-110696856D01*
X156385000Y-110696856D01*
X156514702Y-110672451D01*
X156633825Y-110595797D01*
X156713741Y-110478837D01*
X156741856Y-110340000D01*
X156741856Y-108540000D01*
X156717451Y-108410298D01*
X156640797Y-108291175D01*
X156523837Y-108211259D01*
X156385000Y-108183144D01*
X155345000Y-108183144D01*
X155215298Y-108207549D01*
X155096175Y-108284203D01*
X155056342Y-108342500D01*
X147803856Y-108342500D01*
X147770000Y-108335644D01*
X145795806Y-108335644D01*
X145780000Y-108332500D01*
X145764194Y-108335644D01*
X143770000Y-108335644D01*
X143715000Y-108345993D01*
X143715000Y-107890000D01*
X156828144Y-107890000D01*
X156828144Y-109135000D01*
X156852549Y-109264702D01*
X156929203Y-109383825D01*
X157012009Y-109440405D01*
X156936175Y-109489203D01*
X156856259Y-109606163D01*
X156828144Y-109745000D01*
X156828144Y-110990000D01*
X156852549Y-111119702D01*
X156929203Y-111238825D01*
X157046163Y-111318741D01*
X157185000Y-111346856D01*
X157795000Y-111346856D01*
X157924702Y-111322451D01*
X158043825Y-111245797D01*
X158123741Y-111128837D01*
X158151856Y-110990000D01*
X158151856Y-109745000D01*
X158127451Y-109615298D01*
X158050797Y-109496175D01*
X157967991Y-109439595D01*
X158043825Y-109390797D01*
X158123741Y-109273837D01*
X158151856Y-109135000D01*
X158151856Y-107890000D01*
X158127451Y-107760298D01*
X158050797Y-107641175D01*
X157933837Y-107561259D01*
X157795000Y-107533144D01*
X157185000Y-107533144D01*
X157055298Y-107557549D01*
X156936175Y-107634203D01*
X156856259Y-107751163D01*
X156828144Y-107890000D01*
X143715000Y-107890000D01*
X143715000Y-101850000D01*
X144027143Y-101850000D01*
X144027143Y-105050000D01*
X147212858Y-105050000D01*
X147212858Y-101850000D01*
X144027143Y-101850000D01*
X143715000Y-101850000D01*
X143715000Y-100748360D01*
X148865160Y-100748360D01*
X148865160Y-103948360D01*
X159765160Y-103948360D01*
X159765160Y-101289000D01*
X160541000Y-101289000D01*
X160541000Y-103589000D01*
X165341000Y-103589000D01*
X165341000Y-101750000D01*
X167117143Y-101750000D01*
X167117143Y-104950000D01*
X172302858Y-104950000D01*
X172302858Y-101750000D01*
X167117143Y-101750000D01*
X165341000Y-101750000D01*
X165341000Y-101289000D01*
X160541000Y-101289000D01*
X159765160Y-101289000D01*
X159765160Y-100748360D01*
X148865160Y-100748360D01*
X143715000Y-100748360D01*
X143715000Y-100425000D01*
X173075000Y-100425000D01*
X173075000Y-108345644D01*
X173075000Y-108345644D01*
G37*
X173075000Y-108345644D02*
X169100000Y-108345644D01*
X169063563Y-108352500D01*
X159930259Y-108352500D01*
X159890797Y-108291175D01*
X159773837Y-108211259D01*
X159635000Y-108183144D01*
X158595000Y-108183144D01*
X158465298Y-108207549D01*
X158346175Y-108284203D01*
X158266259Y-108401163D01*
X158238144Y-108540000D01*
X158238144Y-110340000D01*
X158262549Y-110469702D01*
X158339203Y-110588825D01*
X158456163Y-110668741D01*
X158595000Y-110696856D01*
X159635000Y-110696856D01*
X159764702Y-110672451D01*
X159883825Y-110595797D01*
X159930491Y-110527500D01*
X169066144Y-110527500D01*
X169100000Y-110534356D01*
X173075000Y-110534356D01*
X173075000Y-114705000D01*
X143715000Y-114705000D01*
X143715000Y-110513218D01*
X143770000Y-110524356D01*
X145764194Y-110524356D01*
X145780000Y-110527500D01*
X145795806Y-110524356D01*
X147770000Y-110524356D01*
X147806437Y-110517500D01*
X155043306Y-110517500D01*
X155089203Y-110588825D01*
X155206163Y-110668741D01*
X155345000Y-110696856D01*
X156385000Y-110696856D01*
X156514702Y-110672451D01*
X156633825Y-110595797D01*
X156713741Y-110478837D01*
X156741856Y-110340000D01*
X156741856Y-108540000D01*
X156717451Y-108410298D01*
X156640797Y-108291175D01*
X156523837Y-108211259D01*
X156385000Y-108183144D01*
X155345000Y-108183144D01*
X155215298Y-108207549D01*
X155096175Y-108284203D01*
X155056342Y-108342500D01*
X147803856Y-108342500D01*
X147770000Y-108335644D01*
X145795806Y-108335644D01*
X145780000Y-108332500D01*
X145764194Y-108335644D01*
X143770000Y-108335644D01*
X143715000Y-108345993D01*
X143715000Y-107890000D01*
X156828144Y-107890000D01*
X156828144Y-109135000D01*
X156852549Y-109264702D01*
X156929203Y-109383825D01*
X157012009Y-109440405D01*
X156936175Y-109489203D01*
X156856259Y-109606163D01*
X156828144Y-109745000D01*
X156828144Y-110990000D01*
X156852549Y-111119702D01*
X156929203Y-111238825D01*
X157046163Y-111318741D01*
X157185000Y-111346856D01*
X157795000Y-111346856D01*
X157924702Y-111322451D01*
X158043825Y-111245797D01*
X158123741Y-111128837D01*
X158151856Y-110990000D01*
X158151856Y-109745000D01*
X158127451Y-109615298D01*
X158050797Y-109496175D01*
X157967991Y-109439595D01*
X158043825Y-109390797D01*
X158123741Y-109273837D01*
X158151856Y-109135000D01*
X158151856Y-107890000D01*
X158127451Y-107760298D01*
X158050797Y-107641175D01*
X157933837Y-107561259D01*
X157795000Y-107533144D01*
X157185000Y-107533144D01*
X157055298Y-107557549D01*
X156936175Y-107634203D01*
X156856259Y-107751163D01*
X156828144Y-107890000D01*
X143715000Y-107890000D01*
X143715000Y-101850000D01*
X144027143Y-101850000D01*
X144027143Y-105050000D01*
X147212858Y-105050000D01*
X147212858Y-101850000D01*
X144027143Y-101850000D01*
X143715000Y-101850000D01*
X143715000Y-100748360D01*
X148865160Y-100748360D01*
X148865160Y-103948360D01*
X159765160Y-103948360D01*
X159765160Y-101289000D01*
X160541000Y-101289000D01*
X160541000Y-103589000D01*
X165341000Y-103589000D01*
X165341000Y-101750000D01*
X167117143Y-101750000D01*
X167117143Y-104950000D01*
X172302858Y-104950000D01*
X172302858Y-101750000D01*
X167117143Y-101750000D01*
X165341000Y-101750000D01*
X165341000Y-101289000D01*
X160541000Y-101289000D01*
X159765160Y-101289000D01*
X159765160Y-100748360D01*
X148865160Y-100748360D01*
X143715000Y-100748360D01*
X143715000Y-100425000D01*
X173075000Y-100425000D01*
X173075000Y-108345644D01*
M02*
