G04 #@! TF.FileFunction,Legend,Top*
%FSLAX46Y46*%
G04 Gerber Fmt 4.6, Leading zero omitted, Abs format (unit mm)*
G04 Created by KiCad (PCBNEW 4.0.2+dfsg1-stable) date Qua 18 Mai 2016 08:03:29 BRT*
%MOMM*%
G01*
G04 APERTURE LIST*
%ADD10C,0.100000*%
%ADD11C,0.300000*%
%ADD12C,0.150000*%
%ADD13C,0.031750*%
G04 APERTURE END LIST*
D10*
D11*
X152119287Y-96568572D02*
X153047858Y-96568572D01*
X152547858Y-97140001D01*
X152762144Y-97140001D01*
X152905001Y-97211430D01*
X152976430Y-97282858D01*
X153047858Y-97425715D01*
X153047858Y-97782858D01*
X152976430Y-97925715D01*
X152905001Y-97997144D01*
X152762144Y-98068572D01*
X152333572Y-98068572D01*
X152190715Y-97997144D01*
X152119287Y-97925715D01*
X153976429Y-96568572D02*
X154119286Y-96568572D01*
X154262143Y-96640001D01*
X154333572Y-96711430D01*
X154405001Y-96854287D01*
X154476429Y-97140001D01*
X154476429Y-97497144D01*
X154405001Y-97782858D01*
X154333572Y-97925715D01*
X154262143Y-97997144D01*
X154119286Y-98068572D01*
X153976429Y-98068572D01*
X153833572Y-97997144D01*
X153762143Y-97925715D01*
X153690715Y-97782858D01*
X153619286Y-97497144D01*
X153619286Y-97140001D01*
X153690715Y-96854287D01*
X153762143Y-96711430D01*
X153833572Y-96640001D01*
X153976429Y-96568572D01*
X155190714Y-97997144D02*
X155190714Y-98068572D01*
X155119286Y-98211430D01*
X155047857Y-98282858D01*
X156619286Y-98068572D02*
X155762143Y-98068572D01*
X156190715Y-98068572D02*
X156190715Y-96568572D01*
X156047858Y-96782858D01*
X155905000Y-96925715D01*
X155762143Y-96997144D01*
X157333571Y-98068572D02*
X157619286Y-98068572D01*
X157762143Y-97997144D01*
X157833571Y-97925715D01*
X157976429Y-97711430D01*
X158047857Y-97425715D01*
X158047857Y-96854287D01*
X157976429Y-96711430D01*
X157905000Y-96640001D01*
X157762143Y-96568572D01*
X157476429Y-96568572D01*
X157333571Y-96640001D01*
X157262143Y-96711430D01*
X157190714Y-96854287D01*
X157190714Y-97211430D01*
X157262143Y-97354287D01*
X157333571Y-97425715D01*
X157476429Y-97497144D01*
X157762143Y-97497144D01*
X157905000Y-97425715D01*
X157976429Y-97354287D01*
X158047857Y-97211430D01*
X158976428Y-96568572D02*
X159119285Y-96568572D01*
X159262142Y-96640001D01*
X159333571Y-96711430D01*
X159405000Y-96854287D01*
X159476428Y-97140001D01*
X159476428Y-97497144D01*
X159405000Y-97782858D01*
X159333571Y-97925715D01*
X159262142Y-97997144D01*
X159119285Y-98068572D01*
X158976428Y-98068572D01*
X158833571Y-97997144D01*
X158762142Y-97925715D01*
X158690714Y-97782858D01*
X158619285Y-97497144D01*
X158619285Y-97140001D01*
X158690714Y-96854287D01*
X158762142Y-96711430D01*
X158833571Y-96640001D01*
X158976428Y-96568572D01*
X161262142Y-98068572D02*
X161262142Y-97068572D01*
X161262142Y-97211430D02*
X161333570Y-97140001D01*
X161476428Y-97068572D01*
X161690713Y-97068572D01*
X161833570Y-97140001D01*
X161904999Y-97282858D01*
X161904999Y-98068572D01*
X161904999Y-97282858D02*
X161976428Y-97140001D01*
X162119285Y-97068572D01*
X162333570Y-97068572D01*
X162476428Y-97140001D01*
X162547856Y-97282858D01*
X162547856Y-98068572D01*
X163262142Y-98068572D02*
X163262142Y-97068572D01*
X163262142Y-97211430D02*
X163333570Y-97140001D01*
X163476428Y-97068572D01*
X163690713Y-97068572D01*
X163833570Y-97140001D01*
X163904999Y-97282858D01*
X163904999Y-98068572D01*
X163904999Y-97282858D02*
X163976428Y-97140001D01*
X164119285Y-97068572D01*
X164333570Y-97068572D01*
X164476428Y-97140001D01*
X164547856Y-97282858D01*
X164547856Y-98068572D01*
X173500000Y-98740001D02*
X143310000Y-98740001D01*
X173500000Y-100000000D02*
X173500000Y-96040001D01*
X143310000Y-100000000D02*
X143310000Y-96040001D01*
X143310000Y-98740001D02*
X144436504Y-98153580D01*
X143310000Y-98740001D02*
X144436504Y-99326422D01*
X173500000Y-98740001D02*
X172373496Y-98153580D01*
X173500000Y-98740001D02*
X172373496Y-99326422D01*
X177581905Y-102922144D02*
X177581905Y-102179287D01*
X177581905Y-102550716D02*
X178881905Y-102550716D01*
X178696190Y-102426906D01*
X178572381Y-102303097D01*
X178510476Y-102179287D01*
X178881905Y-104098334D02*
X178881905Y-103479287D01*
X178262857Y-103417382D01*
X178324762Y-103479287D01*
X178386667Y-103603096D01*
X178386667Y-103912620D01*
X178324762Y-104036430D01*
X178262857Y-104098334D01*
X178139048Y-104160239D01*
X177829524Y-104160239D01*
X177705714Y-104098334D01*
X177643810Y-104036430D01*
X177581905Y-103912620D01*
X177581905Y-103603096D01*
X177643810Y-103479287D01*
X177705714Y-103417382D01*
X177643810Y-104779287D02*
X177581905Y-104779287D01*
X177458095Y-104717382D01*
X177396190Y-104655477D01*
X177581905Y-106017382D02*
X177581905Y-105274525D01*
X177581905Y-105645954D02*
X178881905Y-105645954D01*
X178696190Y-105522144D01*
X178572381Y-105398335D01*
X178510476Y-105274525D01*
X178881905Y-106450715D02*
X178881905Y-107255477D01*
X178386667Y-106822144D01*
X178386667Y-107007858D01*
X178324762Y-107131668D01*
X178262857Y-107193572D01*
X178139048Y-107255477D01*
X177829524Y-107255477D01*
X177705714Y-107193572D01*
X177643810Y-107131668D01*
X177581905Y-107007858D01*
X177581905Y-106636430D01*
X177643810Y-106512620D01*
X177705714Y-106450715D01*
X178881905Y-108060239D02*
X178881905Y-108184048D01*
X178820000Y-108307858D01*
X178758095Y-108369763D01*
X178634286Y-108431667D01*
X178386667Y-108493572D01*
X178077143Y-108493572D01*
X177829524Y-108431667D01*
X177705714Y-108369763D01*
X177643810Y-108307858D01*
X177581905Y-108184048D01*
X177581905Y-108060239D01*
X177643810Y-107936429D01*
X177705714Y-107874525D01*
X177829524Y-107812620D01*
X178077143Y-107750715D01*
X178386667Y-107750715D01*
X178634286Y-107812620D01*
X178758095Y-107874525D01*
X178820000Y-107936429D01*
X178881905Y-108060239D01*
X177581905Y-110041191D02*
X178448571Y-110041191D01*
X178324762Y-110041191D02*
X178386667Y-110103096D01*
X178448571Y-110226905D01*
X178448571Y-110412619D01*
X178386667Y-110536429D01*
X178262857Y-110598334D01*
X177581905Y-110598334D01*
X178262857Y-110598334D02*
X178386667Y-110660238D01*
X178448571Y-110784048D01*
X178448571Y-110969762D01*
X178386667Y-111093572D01*
X178262857Y-111155477D01*
X177581905Y-111155477D01*
X177581905Y-111774524D02*
X178448571Y-111774524D01*
X178324762Y-111774524D02*
X178386667Y-111836429D01*
X178448571Y-111960238D01*
X178448571Y-112145952D01*
X178386667Y-112269762D01*
X178262857Y-112331667D01*
X177581905Y-112331667D01*
X178262857Y-112331667D02*
X178386667Y-112393571D01*
X178448571Y-112517381D01*
X178448571Y-112703095D01*
X178386667Y-112826905D01*
X178262857Y-112888810D01*
X177581905Y-112888810D01*
X176820000Y-100000000D02*
X176820000Y-115130000D01*
X173500000Y-100000000D02*
X179520000Y-100000000D01*
X173500000Y-115130000D02*
X179520000Y-115130000D01*
X176820000Y-115130000D02*
X176233579Y-114003496D01*
X176820000Y-115130000D02*
X177406421Y-114003496D01*
X176820000Y-100000000D02*
X176233579Y-101126504D01*
X176820000Y-100000000D02*
X177406421Y-101126504D01*
D12*
X157840000Y-107890000D02*
X159640000Y-107890000D01*
X159640000Y-107890000D02*
X159640000Y-110990000D01*
X159640000Y-110990000D02*
X155340000Y-110990000D01*
X155340000Y-110990000D02*
X155340000Y-107890000D01*
X155340000Y-107890000D02*
X157840000Y-107890000D01*
X144770000Y-108689500D02*
X146770000Y-108689500D01*
X144770000Y-110170500D02*
X146770000Y-110170500D01*
X172100000Y-110180500D02*
X170100000Y-110180500D01*
X172100000Y-108699500D02*
X170100000Y-108699500D01*
D13*
X157403238Y-111180452D02*
X157403238Y-111283262D01*
X157409286Y-111295357D01*
X157415333Y-111301405D01*
X157427429Y-111307452D01*
X157451619Y-111307452D01*
X157463714Y-111301405D01*
X157469762Y-111295357D01*
X157475810Y-111283262D01*
X157475810Y-111180452D01*
X157602810Y-111307452D02*
X157530238Y-111307452D01*
X157566524Y-111307452D02*
X157566524Y-111180452D01*
X157554429Y-111198595D01*
X157542334Y-111210690D01*
X157530238Y-111216738D01*
X141827452Y-109523738D02*
X141700452Y-109523738D01*
X141700452Y-109475357D01*
X141706500Y-109463262D01*
X141712548Y-109457214D01*
X141724643Y-109451166D01*
X141742786Y-109451166D01*
X141754881Y-109457214D01*
X141760929Y-109463262D01*
X141766976Y-109475357D01*
X141766976Y-109523738D01*
X141827452Y-109330214D02*
X141827452Y-109402786D01*
X141827452Y-109366500D02*
X141700452Y-109366500D01*
X141718595Y-109378595D01*
X141730690Y-109390690D01*
X141736738Y-109402786D01*
X175157452Y-109533738D02*
X175030452Y-109533738D01*
X175030452Y-109485357D01*
X175036500Y-109473262D01*
X175042548Y-109467214D01*
X175054643Y-109461166D01*
X175072786Y-109461166D01*
X175084881Y-109467214D01*
X175090929Y-109473262D01*
X175096976Y-109485357D01*
X175096976Y-109533738D01*
X175042548Y-109412786D02*
X175036500Y-109406738D01*
X175030452Y-109394643D01*
X175030452Y-109364405D01*
X175036500Y-109352309D01*
X175042548Y-109346262D01*
X175054643Y-109340214D01*
X175066738Y-109340214D01*
X175084881Y-109346262D01*
X175157452Y-109418833D01*
X175157452Y-109340214D01*
M02*
