M48
;DRILL file {KiCad 4.0.2+dfsg1-stable} date Qua 18 Mai 2016 08:03:38 BRT
;FORMAT={-:-/ absolute / metric / decimal}
FMAT,2
METRIC,TZ
T1C1.000
%
G90
G05
M71
T1
X149.3Y-107.43
X149.3Y-111.43
X151.3Y-107.43
X151.3Y-111.43
X153.3Y-107.43
X153.3Y-111.43
X155.3Y-106.43
X155.3Y-112.43
X157.3Y-106.43
X157.3Y-112.43
X159.3Y-106.43
X159.3Y-112.43
X161.3Y-107.43
X161.3Y-111.43
X163.3Y-107.43
X163.3Y-111.43
X165.3Y-107.43
X165.3Y-111.43
X167.3Y-107.43
X167.3Y-111.43
T0
M30
